<?xml version="1.0" encoding="UTF-8"?>
<!DOCTYPE svg PUBLIC "-//W3C//DTD SVG 1.1//EN" "http://www.w3.org/Graphics/SVG/1.1/DTD/svg11.dtd">
<!-- Creator: CorelDRAW -->
<svg xmlns="http://www.w3.org/2000/svg" xml:space="preserve" width="3600px" height="2400px" style="shape-rendering:geometricPrecision; text-rendering:geometricPrecision; image-rendering:optimizeQuality; fill-rule:evenodd; clip-rule:evenodd"
viewBox="0 0 3600 2545.45"
 xmlns:xlink="http://www.w3.org/1999/xlink">
 <defs>
  <style type="text/css">
   <![CDATA[
    .str0 {stroke:white;stroke-width:6.41455}
    .fil1 {fill:none;fill-rule:nonzero}
    .fil0 {fill:white;fill-rule:nonzero}
   ]]>
  </style>
 </defs>
 <g id="Camada_x0020_1">
  <metadata id="CorelCorpID_0Corel-Layer"/>
  <polygon class="fil0" points="324.338,938.955 324.338,855.297 226.73,855.297 226.73,938.955 202.24,938.955 202.24,758.433 226.73,758.433 226.73,834.788 324.338,834.788 324.338,758.433 348.827,758.433 348.827,938.955 "/>
  <path id="1" class="fil0" d="M405.59 874.496c0,15.9176 3.28,28.1624 9.84,36.7782 6.60364,8.61455 16.1806,12.9442 28.8182,12.9442 10.0145,0 18.0182,-2.01212 24.0521,-6.03515 5.99152,-3.97939 10.1018,-9.09576 12.2012,-15.2182l20.2473 5.77212c-8.26424,21.8655 -27.1127,32.7988 -56.5006,32.7988 -20.4655,0 -36.0776,-6.12242 -46.7915,-18.3236 -10.7588,-12.2448 -16.0933,-30.3927 -16.0933,-54.4448 0,-22.9152 5.33455,-40.4521 16.0933,-52.697 10.7139,-12.2 26.0194,-18.3224 45.9176,-18.3224 40.7139,0 61.0921,24.577 61.0921,73.6861l0 3.06182 -98.8764 0zm75.0424 -17.6679c-1.26788,-14.6061 -4.98545,-25.2764 -11.1067,-31.9673 -6.16727,-6.69091 -15,-10.0582 -26.5455,-10.0582 -11.1952,0 -20.0291,3.76121 -26.5879,11.1952 -6.51636,7.47758 -10.0582,17.7552 -10.583,30.8303l74.823 0z"/>
  <polygon id="12" class="fil0" points="533.811,938.955 533.811,748.812 556.901,748.812 556.901,938.955 "/>
  <polygon id="123" class="fil0" points="592.104,938.955 592.104,748.812 615.194,748.812 615.194,938.955 "/>
  <path id="1234" class="fil0" d="M767.64 869.51c0,24.2703 -5.33455,42.3321 -16.0048,54.183 -10.6715,11.8945 -26.1952,17.8424 -46.5309,17.8424 -20.2473,0 -35.5091,-6.2097 -45.8739,-18.543 -10.32,-12.3321 -15.48,-30.1733 -15.48,-53.4824 0,-47.8424 20.7285,-71.7624 62.1418,-71.7624 21.1661,0 36.7782,5.85939 46.7479,17.4921 10.0145,11.6764 15,29.7806 15,54.2703zm-24.2267 0c0,-19.1103 -2.84242,-33.017 -8.52727,-41.72 -5.64121,-8.65818 -15.2194,-12.9879 -28.6012,-12.9879 -13.5127,0 -23.2642,4.41697 -29.2994,13.2509 -5.99152,8.87758 -9.00848,22.6521 -9.00848,41.457 0,18.28 2.97333,32.0109 8.87758,41.1952 5.94788,9.18303 15.2618,13.7745 27.9879,13.7745 13.863,0 23.7455,-4.46061 29.6933,-13.3382 5.90424,-8.87758 8.87758,-22.7394 8.87758,-41.6315z"/>
  <path id="12345" class="fil0" d="M824.665 888.096l-18.9794 0 -3.06061 -129.663 25.1018 0 -3.06182 129.663zm-22.303 50.8594l0 -25.7576 24.84 0 0 25.7576 -24.84 0z"/>
  <path id="123456" class="fil0" d="M286.423 1818.34l0 -87.8994c0,-9.13939 -0.918788,-16.2242 -2.71152,-21.2533 -1.79273,-5.02909 -4.63515,-8.65939 -8.57091,-10.8897 -3.93576,-2.2303 -9.66545,-3.32364 -17.2739,-3.32364 -11.1079,0 -19.8545,3.80485 -26.2824,11.3709 -6.38545,7.60848 -9.62061,18.1479 -9.62061,31.6606l0 80.3345 -23.0461 0 0 -109.022c0,-16.137 -0.26303,-26.0194 -0.787879,-29.6061l21.7782 0c0.0872727,0.437576 0.174545,1.57455 0.26303,3.45455 0.0872727,1.88121 0.218182,4.02424 0.349091,6.47273 0.130909,2.44848 0.26303,7.04121 0.437576,13.7758l0.393939 0c5.29091,-9.57818 11.4133,-16.3127 18.3661,-20.2921 6.95394,-3.97939 15.6121,-5.9903 25.9333,-5.9903 15.2182,0 26.3261,3.80364 33.4109,11.3697 7.04,7.56485 10.5382,20.0291 10.5382,37.4776l0 92.36 -23.177 0z"/>
  <path id="1234567" class="fil0" d="M344.192 1650.24l0 -22.0412 23.0909 0 0 22.0412 -23.0909 0zm0 168.102l0 -138.628 23.0909 0 0 138.628 -23.0909 0z"/>
  <path id="12345678" class="fil0" d="M420.196 1748.37c0,18.4545 2.88606,32.1418 8.70303,41.0194 5.81576,8.87758 14.5624,13.3382 26.2376,13.3382 8.22182,0 15.0873,-2.2303 20.5976,-6.69091 5.5103,-4.41697 8.87758,-11.2824 10.1891,-20.5103l23.3091 1.57455c-1.79273,13.2945 -7.47758,23.9212 -17.0545,31.88 -9.57697,7.95879 -21.6909,11.9394 -36.3842,11.9394 -19.3733,0 -34.1976,-6.16606 -44.3879,-18.4109 -10.1891,-12.2448 -15.3055,-30.1309 -15.3055,-53.6145 0,-23.3091 5.11636,-41.1079 15.3491,-53.3515 10.2776,-12.2448 24.9709,-18.4109 44.0812,-18.4109 14.1685,0 25.977,3.67273 35.2909,11.0194 9.35879,7.34667 15.263,17.4933 17.6242,30.3939l-23.703 1.79273c-1.18061,-7.69697 -4.19758,-13.8194 -9.09576,-18.3236 -4.85455,-4.54788 -11.7636,-6.77818 -20.7285,-6.77818 -12.2448,0 -21.0788,4.02303 -26.5442,12.1576 -5.46667,8.0897 -8.17818,21.7782 -8.17818,40.9758z"/>
  <path id="123456789" class="fil0" d="M551.521 1753.88c0,15.9176 3.28,28.1624 9.84,36.7782 6.60364,8.61455 16.1806,12.9442 28.8182,12.9442 10.0145,0 18.0182,-2.01212 24.0521,-6.03515 5.99152,-3.97939 10.1018,-9.09576 12.2012,-15.2182l20.2473 5.77212c-8.26424,21.8655 -27.1127,32.7988 -56.5006,32.7988 -20.4655,0 -36.0776,-6.12242 -46.7915,-18.3236 -10.7588,-12.2448 -16.0933,-30.3927 -16.0933,-54.4448 0,-22.9152 5.33455,-40.4521 16.0933,-52.697 10.7139,-12.2 26.0194,-18.3224 45.9176,-18.3224 40.7139,0 61.0921,24.577 61.0921,73.6861l0 3.06182 -98.8764 0zm75.0424 -17.6679c-1.26788,-14.6061 -4.98545,-25.2764 -11.1067,-31.9673 -6.16727,-6.69091 -15,-10.0582 -26.5455,-10.0582 -11.1952,0 -20.0291,3.76121 -26.5879,11.1952 -6.51636,7.47758 -10.0582,17.7552 -10.583,30.8303l74.823 0z"/>
  <path id="12345678910" class="fil0" d="M805.949 1817.34c-7.6097,2.01212 -15.3939,3.06182 -23.3091,3.06182 -18.4545,0 -27.6812,-10.4521 -27.6812,-31.3988l0 -92.4921 -16.0061 0 0 -16.7927 16.9236 0 6.77818 -31.0048 15.3503 0 0 31.0048 25.6267 0 0 16.7927 -25.6267 0 0 87.5067c0,6.64727 1.09333,11.3261 3.28,14.0376 2.18667,2.66667 5.94667,4.02303 11.3261,4.02303 3.10545,0 7.52121,-0.612121 13.3382,-1.79273l0 17.0545z"/>
  <path id="1234567891011" class="fil0" d="M942.783 1748.9c0,24.2703 -5.33455,42.3321 -16.0048,54.183 -10.6715,11.8945 -26.1952,17.8424 -46.5309,17.8424 -20.2473,0 -35.5091,-6.2097 -45.8739,-18.543 -10.32,-12.3321 -15.48,-30.1733 -15.48,-53.4824 0,-47.8424 20.7285,-71.7624 62.1418,-71.7624 21.1661,0 36.7782,5.85939 46.7479,17.4921 10.0145,11.6764 15,29.7806 15,54.2703zm-24.2267 0c0,-19.1103 -2.84242,-33.017 -8.52727,-41.72 -5.64121,-8.65818 -15.2194,-12.9879 -28.6012,-12.9879 -13.5127,0 -23.2642,4.41697 -29.2994,13.2509 -5.99152,8.87758 -9.00848,22.6521 -9.00848,41.457 0,18.28 2.97333,32.0109 8.87758,41.1952 5.94788,9.18303 15.2618,13.7745 27.9879,13.7745 13.863,0 23.7455,-4.46061 29.6933,-13.3382 5.90424,-8.87758 8.87758,-22.7394 8.87758,-41.6315z"/>
  <path id="123456789101112" class="fil0" d="M1125.1 1818.34l0 -87.8994c0,-13.3818 -1.83636,-22.6533 -5.5103,-27.8133 -3.67394,-5.11636 -10.2764,-7.65333 -19.8533,-7.65333 -9.84,0 -17.5806,3.76121 -23.3091,11.2836 -5.72848,7.47758 -8.61576,18.1042 -8.61576,31.7479l0 80.3345 -22.9139 0 0 -109.022c0,-16.137 -0.26303,-26.0194 -0.787879,-29.6061l21.7782 0c0.0872727,0.437576 0.174545,1.57455 0.26303,3.45455 0.0872727,1.88121 0.218182,4.02424 0.349091,6.47273 0.130909,2.44848 0.26303,7.04121 0.437576,13.7758l0.393939 0c4.94061,-9.84 10.6267,-16.6618 17.0109,-20.5103 6.42909,-3.84848 14.257,-5.77212 23.4836,-5.77212 10.4958,0 18.8048,2.09818 24.8824,6.29697 6.12242,4.19758 10.3648,10.8448 12.7697,19.9855l0.393939 0c4.76727,-9.31515 10.5394,-16.0061 17.3612,-20.1164 6.77818,-4.11152 15,-6.16606 24.6642,-6.16606 13.9939,0 24.183,3.80364 30.5248,11.4133 6.38424,7.6097 9.57697,20.0727 9.57697,37.4339l0 92.36 -22.8279 0 0 -87.8994c0,-13.3818 -1.83636,-22.6533 -5.5103,-27.8133 -3.67273,-5.11636 -10.2764,-7.65333 -19.8533,-7.65333 -10.0582,0 -17.9297,3.71758 -23.5273,11.1964 -5.59758,7.47758 -8.39636,18.1042 -8.39636,31.8352l0 80.3345 -22.7842 0z"/>
  <path id="12345678910111213" class="fil0" d="M1280.65 1753.88c0,15.9176 3.28,28.1624 9.84,36.7782 6.60364,8.61455 16.1806,12.9442 28.8182,12.9442 10.0145,0 18.0182,-2.01212 24.0521,-6.03515 5.99152,-3.97939 10.1018,-9.09576 12.2012,-15.2182l20.2473 5.77212c-8.26424,21.8655 -27.1127,32.7988 -56.5006,32.7988 -20.4655,0 -36.0776,-6.12242 -46.7915,-18.3236 -10.7588,-12.2448 -16.0933,-30.3927 -16.0933,-54.4448 0,-22.9152 5.33455,-40.4521 16.0933,-52.697 10.7139,-12.2 26.0194,-18.3224 45.9176,-18.3224 40.7139,0 61.0921,24.577 61.0921,73.6861l0 3.06182 -98.8764 0zm75.0424 -17.6679c-1.26788,-14.6061 -4.98545,-25.2764 -11.1067,-31.9673 -6.16727,-6.69091 -15,-10.0582 -26.5455,-10.0582 -11.1952,0 -20.0291,3.76121 -26.5879,11.1952 -6.51636,7.47758 -10.0582,17.7552 -10.583,30.8303l74.823 0z"/>
  <path id="1234567891011121314" class="fil0" d="M1426.58 1753.88c0,15.9176 3.28,28.1624 9.84,36.7782 6.60364,8.61455 16.1806,12.9442 28.8182,12.9442 10.0145,0 18.0182,-2.01212 24.0521,-6.03515 5.99152,-3.97939 10.1018,-9.09576 12.2012,-15.2182l20.2473 5.77212c-8.26424,21.8655 -27.1127,32.7988 -56.5006,32.7988 -20.4655,0 -36.0776,-6.12242 -46.7915,-18.3236 -10.7588,-12.2448 -16.0933,-30.3927 -16.0933,-54.4448 0,-22.9152 5.33455,-40.4521 16.0933,-52.697 10.7139,-12.2 26.0194,-18.3224 45.9176,-18.3224 40.7139,0 61.0921,24.577 61.0921,73.6861l0 3.06182 -98.8764 0zm75.0424 -17.6679c-1.26788,-14.6061 -4.98545,-25.2764 -11.1067,-31.9673 -6.16727,-6.69091 -15,-10.0582 -26.5455,-10.0582 -11.1952,0 -20.0291,3.76121 -26.5879,11.1952 -6.51636,7.47758 -10.0582,17.7552 -10.583,30.8303l74.823 0z"/>
  <path id="123456789101112131415" class="fil0" d="M1608.11 1817.34c-7.6097,2.01212 -15.3939,3.06182 -23.3091,3.06182 -18.4545,0 -27.6812,-10.4521 -27.6812,-31.3988l0 -92.4921 -16.0061 0 0 -16.7927 16.9236 0 6.77818 -31.0048 15.3503 0 0 31.0048 25.6267 0 0 16.7927 -25.6267 0 0 87.5067c0,6.64727 1.09333,11.3261 3.28,14.0376 2.18667,2.66667 5.94667,4.02303 11.3261,4.02303 3.10545,0 7.52121,-0.612121 13.3382,-1.79273l0 17.0545z"/>
  <path id="12345678910111213141516" class="fil0" d="M1707.42 1872.79c-6.34182,0 -11.6327,-0.481212 -15.9188,-1.39879l0 -17.3176c3.28,0.524848 6.86667,0.786667 10.7588,0.786667 14.3867,0 25.7139,-10.5394 34.1103,-31.6606l2.14182 -5.5103 -54.9261 -137.972 24.577 0 29.2121 76.617c0.437576,1.18061 0.962424,2.62424 1.53091,4.28606 0.612121,1.66182 2.53697,7.25939 5.77212,16.7055 3.23636,9.4897 4.98545,14.7806 5.24848,15.9176l8.96485 -25.2327 30.3927 -88.2933 24.3152 0 -53.2655 138.628c-5.72848,14.7806 -11.063,25.7576 -16.0485,32.9733 -4.94182,7.21576 -10.4085,12.5939 -16.4436,16.1806 -6.03515,3.54182 -12.857,5.29091 -20.4218,5.29091z"/>
  <path id="1234567891011121314151617" class="fil0" d="M1949.04 1748.9c0,24.2703 -5.33455,42.3321 -16.0048,54.183 -10.6715,11.8945 -26.1952,17.8424 -46.5309,17.8424 -20.2473,0 -35.5091,-6.2097 -45.8739,-18.543 -10.32,-12.3321 -15.48,-30.1733 -15.48,-53.4824 0,-47.8424 20.7285,-71.7624 62.1418,-71.7624 21.1661,0 36.7782,5.85939 46.7479,17.4921 10.0145,11.6764 15,29.7806 15,54.2703zm-24.2267 0c0,-19.1103 -2.84242,-33.017 -8.52727,-41.72 -5.64121,-8.65818 -15.2194,-12.9879 -28.6012,-12.9879 -13.5127,0 -23.2642,4.41697 -29.2994,13.2509 -5.99152,8.87758 -9.00848,22.6521 -9.00848,41.457 0,18.28 2.97333,32.0109 8.87758,41.1952 5.94788,9.18303 15.2618,13.7745 27.9879,13.7745 13.863,0 23.7455,-4.46061 29.6933,-13.3382 5.90424,-8.87758 8.87758,-22.7394 8.87758,-41.6315z"/>
  <path id="123456789101112131415161718" class="fil0" d="M2000.29 1679.72l0 87.8994c0,9.14061 0.873939,16.2242 2.66788,21.2533 1.79273,5.02909 4.67879,8.65939 8.61455,10.8897 3.93576,2.2303 9.66424,3.32364 17.2739,3.32364 11.1079,0 19.8533,-3.80485 26.2824,-11.3709 6.38424,-7.60848 9.62061,-18.1479 9.62061,-31.6606l0 -80.3345 23.0461 0 0 109.022c0,16.137 0.26303,26.0206 0.744242,29.6061l-21.7782 0c-0.0872727,-0.437576 -0.132121,-1.57455 -0.219394,-3.45455 -0.0872727,-1.88121 -0.218182,-4.02303 -0.349091,-6.47273 -0.132121,-2.44848 -0.26303,-7.04 -0.437576,-13.7745l-0.393939 0c-5.29091,9.57697 -11.4133,16.3552 -18.3673,20.2909 -6.95273,3.97939 -15.6121,5.99152 -25.9321,5.99152 -15.2182,0 -26.3697,-3.80485 -33.4109,-11.3709 -7.04,-7.56485 -10.5394,-20.0291 -10.5394,-37.4776l0 -92.36 23.1782 0z"/>
  <path id="12345678910111213141516171819" class="fil0" d="M2151.99 1767.48l-18.9794 0 -3.06061 -129.663 25.1018 0 -3.06182 129.663zm-22.303 50.8594l0 -25.7576 24.84 0 0 25.7576 -24.84 0z"/>
  <polygon class="fil0" points="205.55,1400.57 205.55,1220.05 229.996,1220.05 229.996,1400.57 "/>
  <path id="1" class="fil0" d="M296.248 1238.64c0,8.96485 -0.830303,16.4861 -2.44848,22.6085 -1.61818,6.12242 -4.11152,11.8945 -7.56606,17.3612l-15.743 0c8.04606,-11.6327 12.0267,-22.7406 12.0267,-33.3236l-11.24 0 0 -25.2327 24.9709 0 0 18.5867z"/>
  <path id="12" class="fil0" d="M410.912 1400.57l0 -87.8994c0,-13.3818 -1.83636,-22.6533 -5.5103,-27.8133 -3.67394,-5.11636 -10.2764,-7.65333 -19.8533,-7.65333 -9.84,0 -17.5806,3.76121 -23.3091,11.2836 -5.72848,7.47758 -8.61576,18.1042 -8.61576,31.7479l0 80.3345 -22.9139 0 0 -109.022c0,-16.137 -0.26303,-26.0194 -0.787879,-29.6061l21.7782 0c0.0872727,0.437576 0.174545,1.57455 0.26303,3.45455 0.0872727,1.88121 0.218182,4.02424 0.349091,6.47273 0.130909,2.44848 0.26303,7.04121 0.437576,13.7758l0.393939 0c4.94061,-9.84 10.6267,-16.6618 17.0109,-20.5103 6.42909,-3.84848 14.257,-5.77212 23.4836,-5.77212 10.4958,0 18.8048,2.09818 24.8824,6.29697 6.12242,4.19758 10.3648,10.8448 12.7697,19.9855l0.393939 0c4.76727,-9.31515 10.5394,-16.0061 17.3612,-20.1164 6.77818,-4.11152 15,-6.16606 24.6642,-6.16606 13.9939,0 24.183,3.80364 30.5248,11.4133 6.38424,7.6097 9.57697,20.0727 9.57697,37.4339l0 92.36 -22.8279 0 0 -87.8994c0,-13.3818 -1.83636,-22.6533 -5.5103,-27.8133 -3.67273,-5.11636 -10.2764,-7.65333 -19.8533,-7.65333 -10.0582,0 -17.9297,3.71758 -23.5273,11.1964 -5.59758,7.47758 -8.39636,18.1042 -8.39636,31.8352l0 80.3345 -22.7842 0z"/>
  <path id="123" class="fil0" d="M688.932 1400.57l-52.4776 0 0 -229.589 40.0145 0c28.8618,0 50.6182,5.30303 65.2691,15.9079 14.6497,10.6048 21.9745,25.5273 21.9745,44.7697 0,21.8655 -9.18424,37.937 -27.5503,48.2133 26.6752,10.0582 40.0133,28.9721 40.0133,56.7418 0,19.6788 -7.21576,35.2582 -21.6473,46.737 -14.4303,11.48 -36.297,17.2194 -65.5964,17.2194zm0 -9.84c10.2764,0 19.6788,-0.819394 28.2073,-2.45939 8.52727,-1.64 16.6715,-4.37333 24.4339,-8.2 7.76242,-3.82667 13.8303,-9.45697 18.2036,-16.8909 4.37333,-7.43394 6.56,-16.2897 6.56,-26.5661 0,-23.3964 -11.2618,-39.2497 -33.783,-47.5588l-19.6788 -7.21455 18.3673 -10.4958c15.0873,-8.30909 22.6303,-21.5382 22.6303,-39.6861 0,-33.8921 -25.8012,-50.8376 -77.4036,-50.8376l-30.1745 0 0 209.909 42.6376 0z"/>
  <polygon id="1234" class="fil0" points="944.104,1280.53 846.693,1280.53 947.056,1180.82 836.198,1180.82 836.198,1390.73 963.455,1390.73 963.455,1400.57 826.358,1400.57 826.358,1170.98 970.999,1170.98 870.635,1270.69 944.104,1270.69 "/>
  <polygon id="12345" class="fil0" points="1151.72,1170.98 1151.72,1180.82 1074.64,1180.82 1074.64,1400.57 1064.8,1400.57 1064.8,1180.82 987.726,1180.82 987.726,1170.98 "/>
  <polygon id="123456" class="fil0" points="1325.55,1170.98 1325.55,1180.82 1248.47,1180.82 1248.47,1400.57 1238.63,1400.57 1238.63,1180.82 1161.56,1180.82 1161.56,1170.98 "/>
  <polygon id="1234567" class="fil0" points="1372.78,1400.57 1362.94,1400.57 1362.94,1170.98 1372.78,1170.98 "/>
  <polygon id="12345678" class="fil0" points="1463.3,1390.73 1564.98,1390.73 1447.56,1187.71 1447.56,1400.57 1437.72,1400.57 1437.72,1170.98 1449.2,1170.98 1571.87,1383.19 1571.87,1170.98 1581.71,1170.98 1581.71,1400.57 1463.3,1400.57 "/>
  <polygon id="123456789" class="fil0" points="1652.55,1390.73 1773.25,1390.73 1703.72,1199.52 1630.57,1400.57 1620.08,1400.57 1703.72,1170.65 1787.35,1400.57 1652.55,1400.57 "/>
  <path id="12345678910" class="fil0" d="M1948.06 1390.73l90.5236 0 -39.6861 -108.89 18.3673 -10.4958c15.0873,-8.30909 22.6303,-21.5382 22.6303,-39.6861 0,-33.8921 -25.8012,-50.8376 -77.4036,-50.8376l-30.1745 0 0 219.749 -9.84 0 0 -229.589 40.0145 0c28.8618,0 50.6182,5.30303 65.2691,15.9079 14.6497,10.6048 21.9745,25.5273 21.9745,44.7697 0,21.8655 -9.18424,37.937 -27.5503,48.2133l-11.1515 6.23152 41.6533 114.467 -104.627 0 0 -9.84z"/>
  <path id="1234567891011" class="fil0" d="M2230.46 1379.09c-12.0255,16.5079 -31.4861,24.7624 -58.3806,24.7624 -26.8945,0 -46.3552,-8.25455 -58.3818,-24.7624 -12.0255,-16.5091 -18.0388,-42.2558 -18.0388,-77.2412l0 -32.1418c0,-34.9855 6.01333,-60.7321 18.0388,-77.24 12.0267,-16.5091 31.4873,-24.7636 58.3818,-24.7636 26.8945,0 46.3552,8.25455 58.3806,24.7636 12.0267,16.5079 18.04,42.2545 18.04,77.24l0 32.1418c0,34.9855 -6.01333,60.7321 -18.04,77.2412zm-30.8303 -197.447c-7.65212,-2.73333 -16.8364,-4.09939 -27.5503,-4.09939 -10.7139,0 -19.8982,1.36606 -27.5503,4.09939 -7.65333,2.73333 -14.5406,7.37939 -20.663,13.9394 -6.12242,6.56 -10.7139,16.017 -13.7758,28.3709 -3.06061,12.3539 -4.59152,27.6048 -4.59152,45.7539l0 32.1418c0,18.1491 1.53091,33.4 4.59152,45.7539 3.06182,12.3539 7.65333,21.8109 13.7758,28.3709 6.12242,6.56 13.0097,11.2061 20.663,13.9394 7.65212,2.73333 16.8364,4.09939 27.5503,4.09939 10.7139,0 19.8982,-1.36606 27.5503,-4.09939 7.65333,-2.73333 14.5406,-7.37939 20.663,-13.9394 6.12242,-6.56 10.7139,-16.017 13.7758,-28.3709 3.06061,-12.3539 4.59152,-27.6048 4.59152,-45.7539l0 -32.1418c0,-18.1491 -1.53091,-33.4 -4.59152,-45.7539 -3.06182,-12.3539 -7.65333,-21.8109 -13.7758,-28.3709 -6.12242,-6.56 -13.0097,-11.2061 -20.663,-13.9394z"/>
  <path id="123456789101112" class="fil0" d="M2439.71 1217.23c-5.02909,-12.6824 -12.1358,-22.4667 -21.3188,-29.3552 -9.18424,-6.88727 -23.5055,-10.3309 -42.9661,-10.3309 -10.7139,0 -19.8982,1.36606 -27.5503,4.09939 -7.65333,2.73333 -14.5406,7.37939 -20.663,13.9394 -6.12242,6.56 -10.7139,16.017 -13.7758,28.3709 -3.06061,12.3539 -4.59152,27.6048 -4.59152,45.7539l0 32.1418c0,18.1491 1.53091,33.4 4.59152,45.7539 3.06182,12.3539 7.65333,21.8109 13.7758,28.3709 6.12242,6.56 13.0097,11.2061 20.663,13.9394 7.65212,2.73333 16.8364,4.09939 27.5503,4.09939 19.6788,0 35.3127,-4.20848 46.9018,-12.6267 11.5891,-8.41818 17.383,-17.4388 17.383,-27.0594l0 -55.4291 -40.3418 0 0 -9.84 52.1491 0 0 61.9891c0,14.6509 -6.61455,27.1139 -19.8424,37.3903 -13.2291,10.2776 -31.9794,15.4158 -56.2497,15.4158 -26.8945,0 -46.3552,-8.25455 -58.3818,-24.7624 -12.0255,-16.5091 -18.0388,-42.2558 -18.0388,-77.2412l0 -32.1418c0,-34.9855 6.01333,-60.7321 18.0388,-77.24 12.0267,-16.5091 31.4873,-24.7636 58.3818,-24.7636 21.6473,0 37.8279,3.9903 48.5418,11.9721 10.7139,7.98061 19.023,19.2958 24.9261,33.9455l-9.18303 3.60848z"/>
  <path id="12345678910111213" class="fil0" d="M2635.52 1379.09c-12.0255,16.5079 -31.4861,24.7624 -58.3806,24.7624 -26.8945,0 -46.3552,-8.25455 -58.3818,-24.7624 -12.0255,-16.5091 -18.0388,-42.2558 -18.0388,-77.2412l0 -32.1418c0,-34.9855 6.01333,-60.7321 18.0388,-77.24 12.0267,-16.5091 31.4873,-24.7636 58.3818,-24.7636 26.8945,0 46.3552,8.25455 58.3806,24.7636 12.0267,16.5079 18.04,42.2545 18.04,77.24l0 32.1418c0,34.9855 -6.01333,60.7321 -18.04,77.2412zm-30.8303 -197.447c-7.65212,-2.73333 -16.8364,-4.09939 -27.5503,-4.09939 -10.7139,0 -19.8982,1.36606 -27.5503,4.09939 -7.65333,2.73333 -14.5406,7.37939 -20.663,13.9394 -6.12242,6.56 -10.7139,16.017 -13.7758,28.3709 -3.06061,12.3539 -4.59152,27.6048 -4.59152,45.7539l0 32.1418c0,18.1491 1.53091,33.4 4.59152,45.7539 3.06182,12.3539 7.65333,21.8109 13.7758,28.3709 6.12242,6.56 13.0097,11.2061 20.663,13.9394 7.65212,2.73333 16.8364,4.09939 27.5503,4.09939 10.7139,0 19.8982,-1.36606 27.5503,-4.09939 7.65333,-2.73333 14.5406,-7.37939 20.663,-13.9394 6.12242,-6.56 10.7139,-16.017 13.7758,-28.3709 3.06061,-12.3539 4.59152,-27.6048 4.59152,-45.7539l0 -32.1418c0,-18.1491 -1.53091,-33.4 -4.59152,-45.7539 -3.06182,-12.3539 -7.65333,-21.8109 -13.7758,-28.3709 -6.12242,-6.56 -13.0097,-11.2061 -20.663,-13.9394z"/>
  <polygon id="1234567891011121314" class="fil0" points="2717.19,1170.98 2851.66,1170.98 2768.03,1400.9 2684.39,1170.98 2694.88,1170.98 2768.03,1372.04 2837.56,1180.82 2717.19,1180.82 "/>
  <path id="123456789101112131415" class="fil0" d="M2882.82 1227.72c0,-21.2097 5.35636,-36.5164 16.0715,-45.9188 10.7139,-9.40121 28.097,-14.103 52.1491,-14.103 16.8364,0 30.3927,4.37333 40.6703,13.12 10.2764,8.74545 17.7103,22.0836 22.303,40.0133l-30.503 22.9588 -16.0715 0 35.423 -26.5661c-4.59273,-14.6497 -11.2061,-24.9273 -19.8436,-30.8303 -8.63636,-5.90424 -19.2958,-8.85576 -31.9782,-8.85576 -8.74667,0 -16.1261,0.546667 -22.1394,1.64 -6.01333,1.09333 -12.0255,3.22545 -18.0388,6.39515 -6.01333,3.17091 -10.5503,8.25455 -13.6109,15.2521 -3.06182,6.99636 -4.59273,15.9612 -4.59273,26.8945 0,9.62061 4.42788,18.1479 13.2836,25.5818 8.85576,7.43515 19.6242,13.7758 32.3067,19.023 12.6824,5.24848 25.4182,10.6048 38.2097,16.0715 12.7915,5.46667 23.6158,12.4642 32.4703,20.9915 8.85576,8.52727 13.2836,18.3673 13.2836,29.5188 0,21.8655 -5.41091,38.1552 -16.2352,48.8691 -10.823,10.7139 -29.3539,16.0715 -55.5927,16.0715 -21.4291,0 -38.2655,-4.31879 -50.5103,-12.9552 -12.2448,-8.63758 -20.663,-22.0303 -25.2545,-40.1782l9.18424 -3.93576c4.37212,17.7103 11.8618,30.0097 22.4667,36.8982 10.6048,6.88727 25.3091,10.3309 44.1139,10.3309 20.9903,0 36.5697,-4.04485 46.737,-12.1345 10.1685,-8.09091 15.2521,-22.4133 15.2521,-42.9661 0,-9.62182 -4.42788,-18.1491 -13.2836,-25.583 -8.85576,-7.43394 -19.6788,-13.7758 -32.4703,-19.023 -12.7915,-5.24848 -25.5285,-10.6048 -38.2109,-16.0715 -12.6812,-5.46667 -23.4509,-12.463 -32.3055,-20.9915 -8.85576,-8.52727 -13.2836,-18.3661 -13.2836,-29.5176z"/>
  <path id="12345678910111213141516" class="fil0" d="M3083.55 1170.98l0 229.589 -9.84 0 0 -229.589 9.84 0zm134.801 0l-110.202 109.547 120.698 120.042 -14.103 0 -120.698 -120.042 110.202 -109.547 14.103 0z"/>
  <polygon id="1234567891011121314151617" class="fil0" points="3272.79,1170.98 3405.63,1170.98 3323.63,1302.18 3323.63,1400.57 3313.79,1400.57 3313.79,1302.18 3231.79,1170.98 3243.27,1170.98 3318.71,1291.35 3387.91,1180.82 3272.79,1180.82 "/>
  <path id="123456789101112131415161718" class="fil1 str0" d="M688.932 1400.57l-52.4776 0 0 -229.589 40.0145 0c28.8618,0 50.6182,5.30303 65.2691,15.9079 14.6497,10.6048 21.9745,25.5273 21.9745,44.7697 0,21.8655 -9.18424,37.937 -27.5503,48.2133 26.6752,10.0582 40.0133,28.9721 40.0133,56.7418 0,19.6788 -7.21576,35.2582 -21.6473,46.737 -14.4303,11.48 -36.297,17.2194 -65.5964,17.2194zm0 -9.84c10.2764,0 19.6788,-0.819394 28.2073,-2.45939 8.52727,-1.64 16.6715,-4.37333 24.4339,-8.2 7.76242,-3.82667 13.8303,-9.45697 18.2036,-16.8909 4.37333,-7.43394 6.56,-16.2897 6.56,-26.5661 0,-23.3964 -11.2618,-39.2497 -33.783,-47.5588l-19.6788 -7.21455 18.3673 -10.4958c15.0873,-8.30909 22.6303,-21.5382 22.6303,-39.6861 0,-33.8921 -25.8012,-50.8376 -77.4036,-50.8376l-30.1745 0 0 209.909 42.6376 0z"/>
  <polygon id="12345678910111213141516171819" class="fil1 str0" points="944.104,1280.53 846.693,1280.53 947.056,1180.82 836.198,1180.82 836.198,1390.73 963.455,1390.73 963.455,1400.57 826.358,1400.57 826.358,1170.98 970.999,1170.98 870.635,1270.69 944.104,1270.69 "/>
  <polygon id="1234567891011121314151617181920" class="fil1 str0" points="1151.72,1170.98 1151.72,1180.82 1074.64,1180.82 1074.64,1400.57 1064.8,1400.57 1064.8,1180.82 987.726,1180.82 987.726,1170.98 "/>
  <polygon id="123456789101112131415161718192021" class="fil1 str0" points="1325.55,1170.98 1325.55,1180.82 1248.47,1180.82 1248.47,1400.57 1238.63,1400.57 1238.63,1180.82 1161.56,1180.82 1161.56,1170.98 "/>
  <polygon id="12345678910111213141516171819202122" class="fil1 str0" points="1372.78,1400.57 1362.94,1400.57 1362.94,1170.98 1372.78,1170.98 "/>
  <polygon id="1234567891011121314151617181920212223" class="fil1 str0" points="1463.3,1390.73 1564.98,1390.73 1447.56,1187.71 1447.56,1400.57 1437.72,1400.57 1437.72,1170.98 1449.2,1170.98 1571.87,1383.19 1571.87,1170.98 1581.71,1170.98 1581.71,1400.57 1463.3,1400.57 "/>
  <polygon id="123456789101112131415161718192021222324" class="fil1 str0" points="1652.55,1390.73 1773.25,1390.73 1703.72,1199.52 1630.57,1400.57 1620.08,1400.57 1703.72,1170.65 1787.35,1400.57 1652.55,1400.57 "/>
  <path id="12345678910111213141516171819202122232425" class="fil1 str0" d="M1948.06 1390.73l90.5236 0 -39.6861 -108.89 18.3673 -10.4958c15.0873,-8.30909 22.6303,-21.5382 22.6303,-39.6861 0,-33.8921 -25.8012,-50.8376 -77.4036,-50.8376l-30.1745 0 0 219.749 -9.84 0 0 -229.589 40.0145 0c28.8618,0 50.6182,5.30303 65.2691,15.9079 14.6497,10.6048 21.9745,25.5273 21.9745,44.7697 0,21.8655 -9.18424,37.937 -27.5503,48.2133l-11.1515 6.23152 41.6533 114.467 -104.627 0 0 -9.84z"/>
  <path id="1234567891011121314151617181920212223242526" class="fil1 str0" d="M2230.46 1379.09c-12.0255,16.5079 -31.4861,24.7624 -58.3806,24.7624 -26.8945,0 -46.3552,-8.25455 -58.3818,-24.7624 -12.0255,-16.5091 -18.0388,-42.2558 -18.0388,-77.2412l0 -32.1418c0,-34.9855 6.01333,-60.7321 18.0388,-77.24 12.0267,-16.5091 31.4873,-24.7636 58.3818,-24.7636 26.8945,0 46.3552,8.25455 58.3806,24.7636 12.0267,16.5079 18.04,42.2545 18.04,77.24l0 32.1418c0,34.9855 -6.01333,60.7321 -18.04,77.2412zm-30.8303 -197.447c-7.65212,-2.73333 -16.8364,-4.09939 -27.5503,-4.09939 -10.7139,0 -19.8982,1.36606 -27.5503,4.09939 -7.65333,2.73333 -14.5406,7.37939 -20.663,13.9394 -6.12242,6.56 -10.7139,16.017 -13.7758,28.3709 -3.06061,12.3539 -4.59152,27.6048 -4.59152,45.7539l0 32.1418c0,18.1491 1.53091,33.4 4.59152,45.7539 3.06182,12.3539 7.65333,21.8109 13.7758,28.3709 6.12242,6.56 13.0097,11.2061 20.663,13.9394 7.65212,2.73333 16.8364,4.09939 27.5503,4.09939 10.7139,0 19.8982,-1.36606 27.5503,-4.09939 7.65333,-2.73333 14.5406,-7.37939 20.663,-13.9394 6.12242,-6.56 10.7139,-16.017 13.7758,-28.3709 3.06061,-12.3539 4.59152,-27.6048 4.59152,-45.7539l0 -32.1418c0,-18.1491 -1.53091,-33.4 -4.59152,-45.7539 -3.06182,-12.3539 -7.65333,-21.8109 -13.7758,-28.3709 -6.12242,-6.56 -13.0097,-11.2061 -20.663,-13.9394z"/>
  <path id="123456789101112131415161718192021222324252627" class="fil1 str0" d="M2439.71 1217.23c-5.02909,-12.6824 -12.1358,-22.4667 -21.3188,-29.3552 -9.18424,-6.88727 -23.5055,-10.3309 -42.9661,-10.3309 -10.7139,0 -19.8982,1.36606 -27.5503,4.09939 -7.65333,2.73333 -14.5406,7.37939 -20.663,13.9394 -6.12242,6.56 -10.7139,16.017 -13.7758,28.3709 -3.06061,12.3539 -4.59152,27.6048 -4.59152,45.7539l0 32.1418c0,18.1491 1.53091,33.4 4.59152,45.7539 3.06182,12.3539 7.65333,21.8109 13.7758,28.3709 6.12242,6.56 13.0097,11.2061 20.663,13.9394 7.65212,2.73333 16.8364,4.09939 27.5503,4.09939 19.6788,0 35.3127,-4.20848 46.9018,-12.6267 11.5891,-8.41818 17.383,-17.4388 17.383,-27.0594l0 -55.4291 -40.3418 0 0 -9.84 52.1491 0 0 61.9891c0,14.6509 -6.61455,27.1139 -19.8424,37.3903 -13.2291,10.2776 -31.9794,15.4158 -56.2497,15.4158 -26.8945,0 -46.3552,-8.25455 -58.3818,-24.7624 -12.0255,-16.5091 -18.0388,-42.2558 -18.0388,-77.2412l0 -32.1418c0,-34.9855 6.01333,-60.7321 18.0388,-77.24 12.0267,-16.5091 31.4873,-24.7636 58.3818,-24.7636 21.6473,0 37.8279,3.9903 48.5418,11.9721 10.7139,7.98061 19.023,19.2958 24.9261,33.9455l-9.18303 3.60848z"/>
  <path id="12345678910111213141516171819202122232425262728" class="fil1 str0" d="M2635.52 1379.09c-12.0255,16.5079 -31.4861,24.7624 -58.3806,24.7624 -26.8945,0 -46.3552,-8.25455 -58.3818,-24.7624 -12.0255,-16.5091 -18.0388,-42.2558 -18.0388,-77.2412l0 -32.1418c0,-34.9855 6.01333,-60.7321 18.0388,-77.24 12.0267,-16.5091 31.4873,-24.7636 58.3818,-24.7636 26.8945,0 46.3552,8.25455 58.3806,24.7636 12.0267,16.5079 18.04,42.2545 18.04,77.24l0 32.1418c0,34.9855 -6.01333,60.7321 -18.04,77.2412zm-30.8303 -197.447c-7.65212,-2.73333 -16.8364,-4.09939 -27.5503,-4.09939 -10.7139,0 -19.8982,1.36606 -27.5503,4.09939 -7.65333,2.73333 -14.5406,7.37939 -20.663,13.9394 -6.12242,6.56 -10.7139,16.017 -13.7758,28.3709 -3.06061,12.3539 -4.59152,27.6048 -4.59152,45.7539l0 32.1418c0,18.1491 1.53091,33.4 4.59152,45.7539 3.06182,12.3539 7.65333,21.8109 13.7758,28.3709 6.12242,6.56 13.0097,11.2061 20.663,13.9394 7.65212,2.73333 16.8364,4.09939 27.5503,4.09939 10.7139,0 19.8982,-1.36606 27.5503,-4.09939 7.65333,-2.73333 14.5406,-7.37939 20.663,-13.9394 6.12242,-6.56 10.7139,-16.017 13.7758,-28.3709 3.06061,-12.3539 4.59152,-27.6048 4.59152,-45.7539l0 -32.1418c0,-18.1491 -1.53091,-33.4 -4.59152,-45.7539 -3.06182,-12.3539 -7.65333,-21.8109 -13.7758,-28.3709 -6.12242,-6.56 -13.0097,-11.2061 -20.663,-13.9394z"/>
  <polygon id="1234567891011121314151617181920212223242526272829" class="fil1 str0" points="2717.19,1170.98 2851.66,1170.98 2768.03,1400.9 2684.39,1170.98 2694.88,1170.98 2768.03,1372.04 2837.56,1180.82 2717.19,1180.82 "/>
  <path id="123456789101112131415161718192021222324252627282930" class="fil1 str0" d="M2882.82 1227.72c0,-21.2097 5.35636,-36.5164 16.0715,-45.9188 10.7139,-9.40121 28.097,-14.103 52.1491,-14.103 16.8364,0 30.3927,4.37333 40.6703,13.12 10.2764,8.74545 17.7103,22.0836 22.303,40.0133l-30.503 22.9588 -16.0715 0 35.423 -26.5661c-4.59273,-14.6497 -11.2061,-24.9273 -19.8436,-30.8303 -8.63636,-5.90424 -19.2958,-8.85576 -31.9782,-8.85576 -8.74667,0 -16.1261,0.546667 -22.1394,1.64 -6.01333,1.09333 -12.0255,3.22545 -18.0388,6.39515 -6.01333,3.17091 -10.5503,8.25455 -13.6109,15.2521 -3.06182,6.99636 -4.59273,15.9612 -4.59273,26.8945 0,9.62061 4.42788,18.1479 13.2836,25.5818 8.85576,7.43515 19.6242,13.7758 32.3067,19.023 12.6824,5.24848 25.4182,10.6048 38.2097,16.0715 12.7915,5.46667 23.6158,12.4642 32.4703,20.9915 8.85576,8.52727 13.2836,18.3673 13.2836,29.5188 0,21.8655 -5.41091,38.1552 -16.2352,48.8691 -10.823,10.7139 -29.3539,16.0715 -55.5927,16.0715 -21.4291,0 -38.2655,-4.31879 -50.5103,-12.9552 -12.2448,-8.63758 -20.663,-22.0303 -25.2545,-40.1782l9.18424 -3.93576c4.37212,17.7103 11.8618,30.0097 22.4667,36.8982 10.6048,6.88727 25.3091,10.3309 44.1139,10.3309 20.9903,0 36.5697,-4.04485 46.737,-12.1345 10.1685,-8.09091 15.2521,-22.4133 15.2521,-42.9661 0,-9.62182 -4.42788,-18.1491 -13.2836,-25.583 -8.85576,-7.43394 -19.6788,-13.7758 -32.4703,-19.023 -12.7915,-5.24848 -25.5285,-10.6048 -38.2109,-16.0715 -12.6812,-5.46667 -23.4509,-12.463 -32.3055,-20.9915 -8.85576,-8.52727 -13.2836,-18.3661 -13.2836,-29.5176z"/>
  <path id="12345678910111213141516171819202122232425262728293031" class="fil1 str0" d="M3083.55 1170.98l0 229.589 -9.84 0 0 -229.589 9.84 0zm134.801 0l-110.202 109.547 120.698 120.042 -14.103 0 -120.698 -120.042 110.202 -109.547 14.103 0z"/>
  <polygon id="1234567891011121314151617181920212223242526272829303132" class="fil1 str0" points="3272.79,1170.98 3405.63,1170.98 3323.63,1302.18 3323.63,1400.57 3313.79,1400.57 3313.79,1302.18 3231.79,1170.98 3243.27,1170.98 3318.71,1291.35 3387.91,1180.82 3272.79,1180.82 "/>
 </g>
</svg>
