<?xml version="1.0" encoding="UTF-8"?>
<!DOCTYPE svg PUBLIC "-//W3C//DTD SVG 1.1//EN" "http://www.w3.org/Graphics/SVG/1.1/DTD/svg11.dtd">
<!-- Creator: CorelDRAW -->
<svg xmlns="http://www.w3.org/2000/svg" xml:space="preserve" width="128px" height="35px" style="shape-rendering:geometricPrecision; text-rendering:geometricPrecision; image-rendering:optimizeQuality; fill-rule:evenodd; clip-rule:evenodd"
viewBox="0 0 128 34.9989"
 xmlns:xlink="http://www.w3.org/1999/xlink">
 <defs>
  <style type="text/css">
   <![CDATA[
    .str1 {stroke:white;stroke-width:0.624811}
    .str0 {stroke:white;stroke-width:1.04175}
    .fil0 {fill:none}
    .fil2 {fill:none;fill-rule:nonzero}
    .fil1 {fill:white;fill-rule:nonzero}
   ]]>
  </style>
 </defs>
 <g id="Camada_x0020_1">
  <metadata id="CorelCorpID_0Corel-Layer"/>
  <rect class="fil0 str0" x="0.504337" y="3.88942" width="123.972" height="30.6134"/>
  <rect class="fil0 str0" x="3.50674" y="0.51851" width="123.972" height="31.0929"/>
  <rect class="fil0" x="-0.0177168" y="0.519691" width="3.00004" height="2.86893"/>
  <path class="fil1" d="M10.356 23.7404l-2.67051 0 0 -11.6848 2.03625 0c1.46931,0 2.5772,0.269295 3.32248,0.809065 0.745285,0.53977 1.11852,1.29923 1.11852,2.27956 0,1.11261 -0.467722,1.92995 -1.40199,2.45318 1.3571,0.511424 2.03625,1.47403 2.03625,2.88783 0,1.00159 -0.367327,1.79412 -1.10198,2.37877 -0.734655,0.584653 -1.84727,0.876389 -3.33902,0.876389zm0 -0.500794c0.523235,0 1.00159,-0.0413391 1.43624,-0.125198 0.43347,-0.0838593 0.848042,-0.22205 1.24372,-0.416934 0.394493,-0.194884 0.703946,-0.481896 0.925996,-0.859853 0.223231,-0.379139 0.334256,-0.829144 0.334256,-1.35238 0,-1.19057 -0.572842,-1.99727 -1.71971,-2.42011l-1.00159 -0.367327 0.935445 -0.533865c0.767726,-0.42284 1.15159,-1.09608 1.15159,-2.01971 0,-1.72561 -1.3134,-2.58783 -3.94021,-2.58783l-1.53545 0 0 10.6832 2.16971 0z"/>
  <polygon id="1" class="fil1" points="23.3436,17.6305 18.3853,17.6305 23.4936,12.5565 17.8514,12.5565 17.8514,23.2397 24.3286,23.2397 24.3286,23.7404 17.3506,23.7404 17.3506,12.0557 24.7125,12.0557 19.6042,17.1297 23.3436,17.1297 "/>
  <polygon id="12" class="fil1" points="33.9099,12.0557 33.9099,12.5565 29.9874,12.5565 29.9874,23.7404 29.4866,23.7404 29.4866,12.5565 25.5641,12.5565 25.5641,12.0557 "/>
  <polygon id="123" class="fil1" points="42.7564,12.0557 42.7564,12.5565 38.8339,12.5565 38.8339,23.7404 38.3331,23.7404 38.3331,12.5565 34.4107,12.5565 34.4107,12.0557 "/>
  <polygon id="1234" class="fil1" points="45.16,23.7404 44.6592,23.7404 44.6592,12.0557 45.16,12.0557 "/>
  <polygon id="12345" class="fil1" points="49.7675,23.2397 54.942,23.2397 48.9656,12.9072 48.9656,23.7404 48.4648,23.7404 48.4648,12.0557 49.0494,12.0557 55.2928,22.8558 55.2928,12.0557 55.7936,12.0557 55.7936,23.7404 49.7675,23.7404 "/>
  <polygon id="123456" class="fil1" points="59.3995,23.2397 65.5425,23.2397 62.0027,13.5073 58.281,23.7404 57.746,23.7404 62.0027,12.0391 66.2595,23.7404 59.3995,23.7404 "/>
  <path id="1234567" class="fil1" d="M74.7399 23.7404l-1.60278 0 0 -11.6848 1.60278 0c1.60278,0 2.95988,0.589377 4.07249,1.76931 1.11379,1.17994 1.6701,2.53704 1.6701,4.07249 0,1.53663 -0.556306,2.89374 -1.6701,4.07367 -1.11261,1.17994 -2.46972,1.76931 -4.07249,1.76931zm0 -0.500794c1.4575,0 2.69531,-0.537408 3.71461,-1.61104 1.01812,-1.07364 1.52718,-2.31735 1.52718,-3.73115 0,-1.41262 -0.509061,-2.65633 -1.52718,-3.72997 -1.0193,-1.07364 -2.25711,-1.61104 -3.71461,-1.61104l-1.10198 0 0 10.6832 1.10198 0z"/>
  <path id="12345678" class="fil1" d="M87.0424 18.8825l2.27011 4.85793 -0.5504 0 -2.33743 -5.00794c0.0224412,-0.0106301 0.119293,-0.0578747 0.291736,-0.141734 0.173624,-0.0838593 0.292917,-0.145277 0.35906,-0.183073 0.0673237,-0.0389769 0.178349,-0.108663 0.334256,-0.209058 0.155907,-0.100395 0.272838,-0.197247 0.350792,-0.291736 0.0779537,-0.0956705 0.164175,-0.206695 0.258665,-0.334256 0.0944894,-0.127561 0.164175,-0.272838 0.209058,-0.434651 0.0437013,-0.160632 0.0661425,-0.336618 0.0661425,-0.525597 0,-0.700402 -0.334256,-1.21891 -1.00159,-1.55199 -0.667331,-0.334256 -1.49648,-0.500794 -2.48743,-0.500794l-1.33466 0 0 9.18082 -0.500794 0 0 -9.68162 1.83546 0c1.3134,0 2.30672,0.227956 2.97996,0.683867 0.673237,0.457092 1.00985,1.07954 1.00985,1.86971 0,0.512605 -0.172443,0.966154 -0.517329,1.36065 -0.344886,0.395674 -0.757096,0.69804 -1.23545,0.90946z"/>
  <polygon id="123456789" class="fil1" points="92.4685,23.2397 97.9099,23.2397 94.4882,15.1774 90.8491,23.7404 90.3153,23.7404 94.4882,13.8923 98.6611,23.7404 92.4685,23.7404 "/>
  <polygon id="12345678910" class="fil1" points="99.8138,14.0588 103.453,22.6219 105.973,16.6963 108.477,22.6219 111.899,14.5596 101.132,14.5596 101.132,14.0588 112.65,14.0588 108.477,23.907 105.973,17.9813 103.453,23.907 99.2788,14.0588 "/>
  <path id="1234567891011" class="fil1" d="M117.09 13.858c1.37954,0 2.35869,0.305909 2.93744,0.918909l-0.333075 0.367327c-0.535046,-0.523235 -1.38073,-0.785443 -2.53704,-0.785443 -1.73624,0 -2.60436,0.689772 -2.60436,2.0705 0,0.533865 0.21142,0.959067 0.63426,1.27679 0.42284,0.316539 0.937807,0.558668 1.54608,0.726387 0.609456,0.1689 1.21655,0.344886 1.8201,0.525597 0.603551,0.183073 1.11852,0.478352 1.54136,0.884657 0.42284,0.406304 0.63426,0.937807 0.63426,1.59451 0,0.767726 -0.31772,1.37954 -0.95198,1.83546 -0.63426,0.457092 -1.55199,0.685048 -2.75436,0.685048 -0.589377,0 -1.17049,-0.0779537 -1.74333,-0.233861 -0.574023,-0.155907 -0.999225,-0.383863 -1.27797,-0.685048l0.334256 -0.367327c0.568117,0.523235 1.44096,0.785443 2.6209,0.785443 1.07954,0 1.89451,-0.20079 2.44491,-0.601188 0.551582,-0.400399 0.826782,-0.868121 0.826782,-1.40199 0,-0.556306 -0.21142,-1.00749 -0.63426,-1.35238 -0.42284,-0.344886 -0.940169,-0.603551 -1.54963,-0.779537 -0.611819,-0.172443 -1.21891,-0.349611 -1.8201,-0.533865 -0.603551,-0.180711 -1.11497,-0.467722 -1.53781,-0.85631 -0.42284,-0.389769 -0.63426,-0.901192 -0.63426,-1.53663 0,-0.85631 0.28583,-1.49293 0.859853,-1.91105 0.572842,-0.416934 1.29923,-0.625992 2.17798,-0.625992z"/>
  <path id="123456789101112" class="fil2 str1" d="M10.356 23.7404l-2.67051 0 0 -11.6848 2.03625 0c1.46931,0 2.5772,0.269295 3.32248,0.809065 0.745285,0.53977 1.11852,1.29923 1.11852,2.27956 0,1.11261 -0.467722,1.92995 -1.40199,2.45318 1.3571,0.511424 2.03625,1.47403 2.03625,2.88783 0,1.00159 -0.367327,1.79412 -1.10198,2.37877 -0.734655,0.584653 -1.84727,0.876389 -3.33902,0.876389zm0 -0.500794c0.523235,0 1.00159,-0.0413391 1.43624,-0.125198 0.43347,-0.0838593 0.848042,-0.22205 1.24372,-0.416934 0.394493,-0.194884 0.703946,-0.481896 0.925996,-0.859853 0.223231,-0.379139 0.334256,-0.829144 0.334256,-1.35238 0,-1.19057 -0.572842,-1.99727 -1.71971,-2.42011l-1.00159 -0.367327 0.935445 -0.533865c0.767726,-0.42284 1.15159,-1.09608 1.15159,-2.01971 0,-1.72561 -1.3134,-2.58783 -3.94021,-2.58783l-1.53545 0 0 10.6832 2.16971 0z"/>
  <polygon id="12345678910111213" class="fil2 str1" points="23.3436,17.6305 18.3853,17.6305 23.4936,12.5565 17.8514,12.5565 17.8514,23.2397 24.3286,23.2397 24.3286,23.7404 17.3506,23.7404 17.3506,12.0557 24.7125,12.0557 19.6042,17.1297 23.3436,17.1297 "/>
  <polygon id="1234567891011121314" class="fil2 str1" points="33.9099,12.0557 33.9099,12.5565 29.9874,12.5565 29.9874,23.7404 29.4866,23.7404 29.4866,12.5565 25.5641,12.5565 25.5641,12.0557 "/>
  <polygon id="123456789101112131415" class="fil2 str1" points="42.7564,12.0557 42.7564,12.5565 38.8339,12.5565 38.8339,23.7404 38.3331,23.7404 38.3331,12.5565 34.4107,12.5565 34.4107,12.0557 "/>
  <polygon id="12345678910111213141516" class="fil2 str1" points="45.16,23.7404 44.6592,23.7404 44.6592,12.0557 45.16,12.0557 "/>
  <polygon id="1234567891011121314151617" class="fil2 str1" points="49.7675,23.2397 54.942,23.2397 48.9656,12.9072 48.9656,23.7404 48.4648,23.7404 48.4648,12.0557 49.0494,12.0557 55.2928,22.8558 55.2928,12.0557 55.7936,12.0557 55.7936,23.7404 49.7675,23.7404 "/>
  <polygon id="123456789101112131415161718" class="fil2 str1" points="59.3995,23.2397 65.5425,23.2397 62.0027,13.5073 58.281,23.7404 57.746,23.7404 62.0027,12.0391 66.2595,23.7404 59.3995,23.7404 "/>
  <path id="12345678910111213141516171819" class="fil2 str1" d="M74.7399 23.7404l-1.60278 0 0 -11.6848 1.60278 0c1.60278,0 2.95988,0.589377 4.07249,1.76931 1.11379,1.17994 1.6701,2.53704 1.6701,4.07249 0,1.53663 -0.556306,2.89374 -1.6701,4.07367 -1.11261,1.17994 -2.46972,1.76931 -4.07249,1.76931zm0 -0.500794c1.4575,0 2.69531,-0.537408 3.71461,-1.61104 1.01812,-1.07364 1.52718,-2.31735 1.52718,-3.73115 0,-1.41262 -0.509061,-2.65633 -1.52718,-3.72997 -1.0193,-1.07364 -2.25711,-1.61104 -3.71461,-1.61104l-1.10198 0 0 10.6832 1.10198 0z"/>
  <path id="1234567891011121314151617181920" class="fil2 str1" d="M87.0424 18.8825l2.27011 4.85793 -0.5504 0 -2.33743 -5.00794c0.0224412,-0.0106301 0.119293,-0.0578747 0.291736,-0.141734 0.173624,-0.0838593 0.292917,-0.145277 0.35906,-0.183073 0.0673237,-0.0389769 0.178349,-0.108663 0.334256,-0.209058 0.155907,-0.100395 0.272838,-0.197247 0.350792,-0.291736 0.0779537,-0.0956705 0.164175,-0.206695 0.258665,-0.334256 0.0944894,-0.127561 0.164175,-0.272838 0.209058,-0.434651 0.0437013,-0.160632 0.0661425,-0.336618 0.0661425,-0.525597 0,-0.700402 -0.334256,-1.21891 -1.00159,-1.55199 -0.667331,-0.334256 -1.49648,-0.500794 -2.48743,-0.500794l-1.33466 0 0 9.18082 -0.500794 0 0 -9.68162 1.83546 0c1.3134,0 2.30672,0.227956 2.97996,0.683867 0.673237,0.457092 1.00985,1.07954 1.00985,1.86971 0,0.512605 -0.172443,0.966154 -0.517329,1.36065 -0.344886,0.395674 -0.757096,0.69804 -1.23545,0.90946z"/>
  <polygon id="123456789101112131415161718192021" class="fil2 str1" points="92.4685,23.2397 97.9099,23.2397 94.4882,15.1774 90.8491,23.7404 90.3153,23.7404 94.4882,13.8923 98.6611,23.7404 92.4685,23.7404 "/>
  <polygon id="12345678910111213141516171819202122" class="fil2 str1" points="99.8138,14.0588 103.453,22.6219 105.973,16.6963 108.477,22.6219 111.899,14.5596 101.132,14.5596 101.132,14.0588 112.65,14.0588 108.477,23.907 105.973,17.9813 103.453,23.907 99.2788,14.0588 "/>
  <path id="1234567891011121314151617181920212223" class="fil2 str1" d="M117.09 13.858c1.37954,0 2.35869,0.305909 2.93744,0.918909l-0.333075 0.367327c-0.535046,-0.523235 -1.38073,-0.785443 -2.53704,-0.785443 -1.73624,0 -2.60436,0.689772 -2.60436,2.0705 0,0.533865 0.21142,0.959067 0.63426,1.27679 0.42284,0.316539 0.937807,0.558668 1.54608,0.726387 0.609456,0.1689 1.21655,0.344886 1.8201,0.525597 0.603551,0.183073 1.11852,0.478352 1.54136,0.884657 0.42284,0.406304 0.63426,0.937807 0.63426,1.59451 0,0.767726 -0.31772,1.37954 -0.95198,1.83546 -0.63426,0.457092 -1.55199,0.685048 -2.75436,0.685048 -0.589377,0 -1.17049,-0.0779537 -1.74333,-0.233861 -0.574023,-0.155907 -0.999225,-0.383863 -1.27797,-0.685048l0.334256 -0.367327c0.568117,0.523235 1.44096,0.785443 2.6209,0.785443 1.07954,0 1.89451,-0.20079 2.44491,-0.601188 0.551582,-0.400399 0.826782,-0.868121 0.826782,-1.40199 0,-0.556306 -0.21142,-1.00749 -0.63426,-1.35238 -0.42284,-0.344886 -0.940169,-0.603551 -1.54963,-0.779537 -0.611819,-0.172443 -1.21891,-0.349611 -1.8201,-0.533865 -0.603551,-0.180711 -1.11497,-0.467722 -1.53781,-0.85631 -0.42284,-0.389769 -0.63426,-0.901192 -0.63426,-1.53663 0,-0.85631 0.28583,-1.49293 0.859853,-1.91105 0.572842,-0.416934 1.29923,-0.625992 2.17798,-0.625992z"/>
 </g>
</svg>
