<?xml version="1.0" encoding="UTF-8"?>
<!DOCTYPE svg PUBLIC "-//W3C//DTD SVG 1.1//EN" "http://www.w3.org/Graphics/SVG/1.1/DTD/svg11.dtd">
<!-- Creator: CorelDRAW -->
<svg xmlns="http://www.w3.org/2000/svg" xml:space="preserve" width="3600px" height="2400px" style="shape-rendering:geometricPrecision; text-rendering:geometricPrecision; image-rendering:optimizeQuality; fill-rule:evenodd; clip-rule:evenodd"
viewBox="0 0 3600 2545.45"
 xmlns:xlink="http://www.w3.org/1999/xlink">
 <defs>
  <style type="text/css">
   <![CDATA[
    .str0 {stroke:#1F1A17;stroke-width:6.41455}
    .fil1 {fill:none;fill-rule:nonzero}
    .fil0 {fill:#44474E;fill-rule:nonzero}
   ]]>
  </style>
 </defs>
 <g id="Camada_x0020_1">
  <metadata id="CorelCorpID_0Corel-Layer"/>
  <path class="fil0" d="M654.622 552.887c0,20.7539 4.27636,36.7176 12.8279,47.9503 8.6097,11.2315 21.0958,16.8764 37.5733,16.8764 13.0558,0 23.4897,-2.62303 31.3576,-7.86909 7.81091,-5.18788 13.1709,-11.8582 15.9067,-19.84l26.3976 7.52485c-10.7758,28.5079 -35.3479,42.7612 -73.6618,42.7612 -26.6836,0 -47.0376,-7.98182 -61.0061,-23.8885 -14.0255,-15.9648 -20.9818,-39.6255 -20.9818,-70.983 0,-29.8764 6.95636,-52.7394 20.9818,-68.703 13.9685,-15.9067 33.9236,-23.8885 59.8655,-23.8885 53.08,0 79.6497,32.0412 79.6497,96.0691l0 3.9903 -128.91 0zm97.8364 -23.0327c-1.65333,-19.0436 -6.49939,-32.9552 -14.4812,-41.6788 -8.03879,-8.72242 -19.5564,-13.1127 -34.6073,-13.1127 -14.5964,0 -26.1127,4.90303 -34.6655,14.5952 -8.49455,9.7503 -13.1127,23.1479 -13.7976,40.1964l97.5515 0z"/>
  <path id="1" class="fil0" d="M901.152 636.927l-35.577 0 -65.623 -180.736 32.0424 0 39.7382 117.621c1.48242,4.44727 5.30303,17.617 11.5176,39.5685l5.87273 -19.5564 6.49939 -19.7273 41.1079 -117.905 31.9273 0 -67.5055 180.736z"/>
  <path id="12" class="fil0" d="M1015.92 552.887c0,20.7539 4.27636,36.7176 12.8279,47.9503 8.6097,11.2315 21.0958,16.8764 37.5733,16.8764 13.0558,0 23.4897,-2.62303 31.3576,-7.86909 7.81091,-5.18788 13.1709,-11.8582 15.9067,-19.84l26.3976 7.52485c-10.7758,28.5079 -35.3479,42.7612 -73.6618,42.7612 -26.6836,0 -47.0376,-7.98182 -61.0061,-23.8885 -14.0255,-15.9648 -20.9818,-39.6255 -20.9818,-70.983 0,-29.8764 6.95636,-52.7394 20.9818,-68.703 13.9685,-15.9067 33.9236,-23.8885 59.8655,-23.8885 53.08,0 79.6497,32.0412 79.6497,96.0691l0 3.9903 -128.91 0zm97.8364 -23.0327c-1.65333,-19.0436 -6.49939,-32.9552 -14.4812,-41.6788 -8.03879,-8.72242 -19.5564,-13.1127 -34.6073,-13.1127 -14.5964,0 -26.1127,4.90303 -34.6655,14.5952 -8.49455,9.7503 -13.1127,23.1479 -13.7976,40.1964l97.5515 0z"/>
  <path id="123" class="fil0" d="M1183.77 636.927l0 -138.659c0,-12.657 -0.341818,-26.6824 -1.02545,-42.0764l28.3927 0c0.912727,20.4679 1.36848,32.783 1.36848,36.9455l0.683636 0c4.7903,-15.5079 10.263,-26.0558 16.5345,-31.7576 6.21455,-5.70182 14.9952,-8.55152 26.3976,-8.55152 3.99152,0 8.04,0.569697 12.1442,1.7103l0 27.5382c-3.9903,-1.08364 -9.3503,-1.65455 -16.0206,-1.65455 -12.4861,0 -22.0073,5.36 -28.5648,16.1358 -6.55636,10.7188 -9.86303,26.1127 -9.86303,46.1818l0 94.1879 -30.0473 0z"/>
  <path id="1234" class="fil0" d="M1305.9 707.91c-8.26788,0 -15.1661,-0.626667 -20.7539,-1.82424l0 -22.5782c4.27636,0.684848 8.95152,1.02667 14.0255,1.02667 18.7588,0 33.5248,-13.7406 44.4715,-41.2788l2.79394 -7.18424 -71.6097 -179.88 32.0412 0 38.0861 99.8897c0.569697,1.53939 1.25455,3.42061 1.99515,5.58667 0.798788,2.16727 3.30788,9.46424 7.52606,21.7794 4.21939,12.3721 6.49939,19.2715 6.84242,20.7539l11.6873 -32.8982 39.6255 -115.112 31.7006 0 -69.4448 180.736c-7.46788,19.2715 -14.4242,33.5818 -20.9236,42.9891 -6.44242,9.40727 -13.5697,16.4206 -21.4376,21.0958 -7.86788,4.61818 -16.7624,6.89818 -26.6255,6.89818z"/>
  <path id="12345" class="fil0" d="M1620.9 546.388c0,31.6436 -6.95515,55.1903 -20.8667,70.6412 -13.9115,15.5079 -34.1527,23.2618 -60.6642,23.2618 -26.3976,0 -46.2958,-8.09576 -59.8085,-24.1745 -13.4545,-16.0776 -20.183,-39.3394 -20.183,-69.7285 0,-62.3733 27.0255,-93.56 81.0182,-93.56 27.5952,0 47.9491,7.63879 60.9479,22.8048 13.057,15.223 19.5564,38.8279 19.5564,70.7552zm-31.5855 0c0,-24.9152 -3.70667,-43.0461 -11.1188,-54.3915 -7.35394,-11.2885 -19.84,-16.9333 -37.2873,-16.9333 -17.617,0 -30.3309,5.75879 -38.2,17.2752 -7.81091,11.5745 -11.7442,29.5333 -11.7442,54.0497 0,23.8327 3.87636,41.7345 11.5733,53.7079 7.75394,11.9733 19.8982,17.96 36.4897,17.96 18.0739,0 30.9588,-5.81576 38.7127,-17.3903 7.69697,-11.5733 11.5745,-29.6473 11.5745,-54.2776z"/>
  <path id="123456" class="fil0" d="M1773.07 636.927l0 -114.599c0,-11.9164 -1.19636,-21.1527 -3.53455,-27.7091 -2.33697,-6.55758 -6.04364,-11.2897 -11.1745,-14.1976 -5.13091,-2.90667 -12.6,-4.33212 -22.5212,-4.33212 -14.4812,0 -25.8848,4.96 -34.2655,14.823 -8.32364,9.92121 -12.543,23.6618 -12.543,41.2788l0 104.736 -30.0473 0 0 -142.137c0,-21.0388 -0.341818,-33.9236 -1.02545,-38.5988l28.3927 0c0.113939,0.569697 0.227879,2.05212 0.341818,4.50424 0.113939,2.45091 0.286061,5.24485 0.45697,8.43758 0.170909,3.19273 0.341818,9.17939 0.569697,17.96l0.512727 0c6.89939,-12.4861 14.8812,-21.2667 23.9467,-26.4545 9.06545,-5.18909 20.3539,-7.81091 33.8097,-7.81091 19.8412,0 34.3224,4.96 43.5588,14.823 9.17939,9.86424 13.7406,26.1127 13.7406,48.8618l0 120.415 -30.2182 0z"/>
  <path id="1234567" class="fil0" d="M1871.65 552.887c0,20.7539 4.27636,36.7176 12.8279,47.9503 8.6097,11.2315 21.0958,16.8764 37.5733,16.8764 13.0558,0 23.4897,-2.62303 31.3576,-7.86909 7.81091,-5.18788 13.1709,-11.8582 15.9067,-19.84l26.3976 7.52485c-10.7758,28.5079 -35.3479,42.7612 -73.6618,42.7612 -26.6836,0 -47.0376,-7.98182 -61.0061,-23.8885 -14.0255,-15.9648 -20.9818,-39.6255 -20.9818,-70.983 0,-29.8764 6.95636,-52.7394 20.9818,-68.703 13.9685,-15.9067 33.9236,-23.8885 59.8655,-23.8885 53.08,0 79.6497,32.0412 79.6497,96.0691l0 3.9903 -128.91 0zm97.8364 -23.0327c-1.65333,-19.0436 -6.49939,-32.9552 -14.4812,-41.6788 -8.03879,-8.72242 -19.5564,-13.1127 -34.6073,-13.1127 -14.5964,0 -26.1127,4.90303 -34.6655,14.5952 -8.49455,9.7503 -13.1127,23.1479 -13.7976,40.1964l97.5515 0z"/>
  <polygon id="12345678" class="fil0" points="2133.86,636.927 2133.86,389.028 2163.96,389.028 2163.96,636.927 "/>
  <path id="123456789" class="fil0" d="M2209.69 417.764l0 -28.7358 30.103 0 0 28.7358 -30.103 0zm0 219.164l0 -180.736 30.103 0 0 180.736 -30.103 0z"/>
  <polygon id="12345678910" class="fil0" points="2399.15,636.927 2337.97,554.427 2315.96,572.615 2315.96,636.927 2285.86,636.927 2285.86,389.028 2315.96,389.028 2315.96,543.88 2395.27,456.192 2430.51,456.192 2357.19,533.845 2434.38,636.927 "/>
  <path id="1234567891011" class="fil0" d="M2480 552.887c0,20.7539 4.27636,36.7176 12.8279,47.9503 8.6097,11.2315 21.0958,16.8764 37.5733,16.8764 13.0558,0 23.4897,-2.62303 31.3576,-7.86909 7.81091,-5.18788 13.1709,-11.8582 15.9067,-19.84l26.3976 7.52485c-10.7758,28.5079 -35.3479,42.7612 -73.6618,42.7612 -26.6836,0 -47.0376,-7.98182 -61.0061,-23.8885 -14.0255,-15.9648 -20.9818,-39.6255 -20.9818,-70.983 0,-29.8764 6.95636,-52.7394 20.9818,-68.703 13.9685,-15.9067 33.9236,-23.8885 59.8655,-23.8885 53.08,0 79.6497,32.0412 79.6497,96.0691l0 3.9903 -128.91 0zm97.8364 -23.0327c-1.65333,-19.0436 -6.49939,-32.9552 -14.4812,-41.6788 -8.03879,-8.72242 -19.5564,-13.1127 -34.6073,-13.1127 -14.5964,0 -26.1127,4.90303 -34.6655,14.5952 -8.49455,9.7503 -13.1127,23.1479 -13.7976,40.1964l97.5515 0z"/>
  <path id="123456789101112" class="fil0" d="M2782.8 586.983c0,17.0473 -6.44242,30.16 -19.2715,39.3964 -12.8848,9.29333 -30.9018,13.9115 -54.0497,13.9115 -22.463,0 -39.8521,-3.70545 -52.0533,-11.1176 -12.1442,-7.41212 -20.1261,-18.9855 -23.7758,-34.6655l26.5685 -5.18788c2.56606,9.69212 7.86909,16.7624 15.8509,21.3236 8.03879,4.50424 19.1564,6.72727 33.4097,6.72727 15.28,0 26.3988,-2.33697 33.4679,-7.01212 7.12727,-4.67515 10.6618,-11.6885 10.6618,-21.0388 0,-7.12727 -2.45212,-12.9418 -7.35515,-17.3891 -4.90303,-4.44727 -12.8279,-8.09576 -23.7176,-11.0036l-21.5515 -5.70182c-17.2752,-4.44727 -29.5333,-8.78061 -36.8315,-13.1139 -7.29818,-4.27515 -12.9988,-9.46424 -17.1612,-15.6218 -4.10545,-6.10061 -6.15758,-13.6267 -6.15758,-22.52 0,-16.4776 5.87273,-29.0206 17.617,-37.6873 11.7455,-8.60848 28.8497,-12.9418 51.3709,-12.9418 19.9552,0 35.7479,3.53455 47.4921,10.5479 11.7455,7.01212 19.2145,18.2448 22.3503,33.7527l-27.0824 3.30667c-1.65333,-7.98182 -6.15758,-14.1394 -13.4545,-18.4727 -7.29818,-4.27636 -17.0473,-6.38545 -29.3055,-6.38545 -13.5697,0 -23.6048,2.05212 -30.0473,6.15758 -6.49939,4.10424 -9.69212,10.3758 -9.69212,18.7006 0,5.13091 1.31152,9.3503 3.9903,12.7139 2.68,3.30667 6.61455,6.15758 11.8594,8.49576 5.24606,2.33697 16.2497,5.58667 33.0691,9.69212 15.9067,4.04727 27.423,7.69697 34.4364,11.1176 7.01212,3.42061 12.543,7.18424 16.5915,11.2885 4.04727,4.10545 7.24,8.89455 9.46424,14.2545 2.22303,5.41576 3.30667,11.5733 3.30667,18.4727z"/>
  <path id="12345678910111213" class="fil0" d="M2982.75 635.616c-9.92,2.62303 -20.0691,3.99152 -30.3891,3.99152 -24.0594,0 -36.0897,-13.6267 -36.0897,-40.937l0 -120.585 -20.8679 0 0 -21.8933 22.0655 0 8.83636 -40.4242 20.0121 0 0 40.4242 33.4109 0 0 21.8933 -33.4109 0 0 114.086c0,8.66667 1.42545,14.7673 4.27636,18.3018 2.85091,3.47758 7.75394,5.24485 14.7673,5.24485 4.04727,0 9.80606,-0.797576 17.3891,-2.33697l0 22.2352z"/>
  <path id="1234567891011121314" class="fil0" d="M3161.15 546.388c0,31.6436 -6.95515,55.1903 -20.8667,70.6412 -13.9115,15.5079 -34.1527,23.2618 -60.6642,23.2618 -26.3976,0 -46.2958,-8.09576 -59.8085,-24.1745 -13.4545,-16.0776 -20.183,-39.3394 -20.183,-69.7285 0,-62.3733 27.0255,-93.56 81.0182,-93.56 27.5952,0 47.9491,7.63879 60.9479,22.8048 13.057,15.223 19.5564,38.8279 19.5564,70.7552zm-31.5855 0c0,-24.9152 -3.70667,-43.0461 -11.1188,-54.3915 -7.35394,-11.2885 -19.84,-16.9333 -37.2873,-16.9333 -17.617,0 -30.3309,5.75879 -38.2,17.2752 -7.81091,11.5745 -11.7442,29.5333 -11.7442,54.0497 0,23.8327 3.87636,41.7345 11.5733,53.7079 7.75394,11.9733 19.8982,17.96 36.4897,17.96 18.0739,0 30.9588,-5.81576 38.7127,-17.3903 7.69697,-11.5733 11.5745,-29.6473 11.5745,-54.2776z"/>
  <path class="fil0" d="M596.857 1049.28c0,63.0582 -22.1782,94.5867 -66.4788,94.5867 -13.6836,0 -25.0861,-2.50788 -34.1515,-7.46909 -9.06545,-4.96 -16.4776,-12.9418 -22.1224,-23.9455l-0.341818 0c0,3.42061 -0.227879,8.72242 -0.683636,15.7927 -0.455758,7.0703 -0.798788,11.1176 -1.02667,12.2582l-29.0206 0c0.627879,-5.98667 0.969697,-18.4158 0.969697,-37.2303l0 -210.669 30.103 0 0 70.6982c0,7.24121 -0.227879,15.7358 -0.683636,25.543l0.683636 0c5.53091,-11.5745 12.943,-19.8982 22.1224,-24.9164 9.17939,-5.01697 20.5818,-7.52485 34.1515,-7.52485 22.8061,0 39.6255,7.69697 50.3442,23.0909 10.7758,15.3358 16.1345,38.6558 16.1345,69.7855zm-31.5855 1.02545c0,-25.257 -3.30667,-43.3879 -10.0352,-54.2776 -6.6703,-10.9467 -17.503,-16.3624 -32.5552,-16.3624 -16.9333,0 -29.2485,5.75758 -37.0024,17.3321 -7.69697,11.6303 -11.5745,29.9891 -11.5745,55.1333 0,23.7176 3.76364,41.2206 11.3467,52.5673 7.58303,11.2885 19.8412,16.9333 36.8885,16.9333 15.1661,0 26.1127,-5.58788 32.84,-16.7624 6.72727,-11.2315 10.0921,-29.4194 10.0921,-54.5636z"/>
  <path id="1" class="fil0" d="M657.349 1056.46c0,20.7539 4.27636,36.7176 12.8279,47.9503 8.6097,11.2315 21.0958,16.8764 37.5733,16.8764 13.0558,0 23.4897,-2.62303 31.3576,-7.86909 7.81091,-5.18788 13.1709,-11.8582 15.9067,-19.84l26.3976 7.52485c-10.7758,28.5079 -35.3479,42.7612 -73.6618,42.7612 -26.6836,0 -47.0376,-7.98182 -61.0061,-23.8885 -14.0255,-15.9648 -20.9818,-39.6255 -20.9818,-70.983 0,-29.8764 6.95636,-52.7394 20.9818,-68.703 13.9685,-15.9067 33.9236,-23.8885 59.8655,-23.8885 53.08,0 79.6497,32.0412 79.6497,96.0691l0 3.9903 -128.91 0zm97.8364 -23.0327c-1.65333,-19.0436 -6.49939,-32.9552 -14.4812,-41.6788 -8.03879,-8.72242 -19.5564,-13.1127 -34.6073,-13.1127 -14.5964,0 -26.1127,4.90303 -34.6655,14.5952 -8.49455,9.7503 -13.1127,23.1479 -13.7976,40.1964l97.5515 0z"/>
  <path id="12" class="fil0" d="M989.059 1139.19c-9.92,2.62303 -20.0691,3.99152 -30.3891,3.99152 -24.0594,0 -36.0897,-13.6267 -36.0897,-40.937l0 -120.585 -20.8679 0 0 -21.8933 22.0655 0 8.83636 -40.4242 20.0121 0 0 40.4242 33.4109 0 0 21.8933 -33.4109 0 0 114.086c0,8.66667 1.42545,14.7673 4.27636,18.3018 2.85091,3.47758 7.75394,5.24485 14.7673,5.24485 4.04727,0 9.80606,-0.797576 17.3891,-2.33697l0 22.2352z"/>
  <path id="123" class="fil0" d="M1044.53 990.664c6.44364,-11.8024 14.1976,-20.4691 23.2618,-25.9988 9.12242,-5.47394 20.583,-8.26667 34.4945,-8.26667 19.6133,0 34.0945,4.90303 43.3879,14.6521 9.29333,9.74909 13.9115,26.0558 13.9115,49.0327l0 120.415 -30.2182 0 0 -114.599c0,-12.6582 -1.19636,-22.1224 -3.53455,-28.28 -2.33697,-6.21455 -6.15758,-10.7188 -11.5164,-13.6267 -5.30303,-2.90667 -12.7152,-4.33212 -22.1794,-4.33212 -14.1394,0 -25.4848,4.90303 -34.0376,14.7091 -8.49455,9.74909 -12.7709,22.977 -12.7709,39.5685l0 106.56 -30.0473 0 0 -247.899 30.0473 0 0 64.4836c0,6.78424 -0.170909,13.7976 -0.569697,21.0388 -0.4,7.24 -0.627879,11.4594 -0.741818,12.543l0.512727 0z"/>
  <path id="1234" class="fil0" d="M1227.95 1056.46c0,20.7539 4.27636,36.7176 12.8279,47.9503 8.6097,11.2315 21.0958,16.8764 37.5733,16.8764 13.0558,0 23.4897,-2.62303 31.3576,-7.86909 7.81091,-5.18788 13.1709,-11.8582 15.9067,-19.84l26.3976 7.52485c-10.7758,28.5079 -35.3479,42.7612 -73.6618,42.7612 -26.6836,0 -47.0376,-7.98182 -61.0061,-23.8885 -14.0255,-15.9648 -20.9818,-39.6255 -20.9818,-70.983 0,-29.8764 6.95636,-52.7394 20.9818,-68.703 13.9685,-15.9067 33.9236,-23.8885 59.8655,-23.8885 53.08,0 79.6497,32.0412 79.6497,96.0691l0 3.9903 -128.91 0zm97.8364 -23.0327c-1.65333,-19.0436 -6.49939,-32.9552 -14.4812,-41.6788 -8.03879,-8.72242 -19.5564,-13.1127 -34.6073,-13.1127 -14.5964,0 -26.1127,4.90303 -34.6655,14.5952 -8.49455,9.7503 -13.1127,23.1479 -13.7976,40.1964l97.5515 0z"/>
  <path id="12345" class="fil0" d="M2590.2 1049.96c0,31.6436 -6.95515,55.1903 -20.8667,70.6412 -13.9115,15.5079 -34.1527,23.2618 -60.6642,23.2618 -26.3976,0 -46.2958,-8.09576 -59.8085,-24.1745 -13.4545,-16.0776 -20.183,-39.3394 -20.183,-69.7285 0,-62.3733 27.0255,-93.56 81.0182,-93.56 27.5952,0 47.9491,7.63879 60.9479,22.8048 13.057,15.223 19.5564,38.8279 19.5564,70.7552zm-31.5855 0c0,-24.9152 -3.70667,-43.0461 -11.1188,-54.3915 -7.35394,-11.2885 -19.84,-16.9333 -37.2873,-16.9333 -17.617,0 -30.3309,5.75879 -38.2,17.2752 -7.81091,11.5745 -11.7442,29.5333 -11.7442,54.0497 0,23.8327 3.87636,41.7345 11.5733,53.7079 7.75394,11.9733 19.8982,17.96 36.4897,17.96 18.0739,0 30.9588,-5.81576 38.7127,-17.3903 7.69697,-11.5733 11.5745,-29.6473 11.5745,-54.2776z"/>
  <path id="123456" class="fil0" d="M2664.89 981.656l0 158.842 -30.103 0 0 -158.842 -25.3721 0 0 -21.8933 25.3721 0 0 -20.3539c0,-16.4776 3.64848,-28.337 10.8897,-35.5782 7.24,-7.24 18.3018,-10.8897 33.2388,-10.8897 8.32485,0 15.3939,0.684848 21.2097,1.99636l0 22.92c-5.01697,-0.912727 -9.46424,-1.36848 -13.3988,-1.36848 -7.64,0 -13.2267,1.93818 -16.7055,5.87152 -3.42061,3.87758 -5.13091,10.9479 -5.13091,21.2097l0 16.1927 35.2352 0 0 21.8933 -35.2352 0z"/>
  <path id="1234567" class="fil0" d="M2863.81 1143.86c-18.1309,0 -31.8145,-4.78909 -40.937,-14.3673 -9.12242,-9.57818 -13.6836,-22.7491 -13.6836,-39.4545 0,-18.7006 6.15758,-33.0679 18.4727,-43.103 12.2582,-9.97697 32.1564,-15.337 59.5236,-16.0206l40.5939 -0.684848 0 -9.80606c0,-14.7091 -3.13576,-25.257 -9.3503,-31.5855 -6.21455,-6.3297 -16.0206,-9.52242 -29.4194,-9.52242 -13.4545,0 -23.2618,2.28121 -29.3624,6.84242 -6.15758,4.56121 -9.80606,11.8594 -11.0606,21.8933l-31.3576 -2.85091c5.07394,-32.4982 29.2485,-48.8036 72.4655,-48.8036 22.6909,0 39.7964,5.24485 51.2558,15.6218 11.5164,10.4327 17.2182,25.4848 17.2182,45.2121l0 77.8255c0,8.89333 1.19758,15.6218 3.53455,20.1261 2.33818,4.50303 6.78545,6.78424 13.3418,6.78424 2.90788,0 6.15758,-0.398788 9.86303,-1.19758l0 18.7006c-7.58182,1.82545 -15.3358,2.68 -23.2048,2.68 -11.1745,0 -19.2703,-2.90788 -24.3442,-8.78061 -5.01818,-5.81455 -7.92606,-14.9939 -8.55273,-27.423l-1.02667 0c-7.69697,13.7976 -16.6473,23.5467 -26.7964,29.3055 -10.2061,5.70061 -22.5782,8.60848 -37.1733,8.60848zm6.84121 -22.577c11.0036,0 20.8109,-2.50909 29.4194,-7.52606 8.55273,-5.01818 15.337,-11.8594 20.2982,-20.64 4.96,-8.72242 7.41091,-17.7309 7.41091,-26.9673l0 -14.8242 -32.897 0.627879c-14.1394,0.227879 -24.8582,1.7103 -32.1564,4.33212 -7.29818,2.68 -12.8848,6.84242 -16.8194,12.3721 -3.87636,5.58788 -5.81576,12.8861 -5.81576,21.8945 0,9.80606 2.62303,17.3891 7.92606,22.6909 5.30182,5.36 12.8279,8.04 22.6339,8.04z"/>
  <path id="12345678" class="fil0" d="M3122.71 1140.5l0 -114.599c0,-11.9164 -1.19636,-21.1527 -3.53455,-27.7091 -2.33697,-6.55758 -6.04364,-11.2897 -11.1745,-14.1976 -5.13091,-2.90667 -12.6,-4.33212 -22.5212,-4.33212 -14.4812,0 -25.8848,4.96 -34.2655,14.823 -8.32364,9.92121 -12.543,23.6618 -12.543,41.2788l0 104.736 -30.0473 0 0 -142.137c0,-21.0388 -0.341818,-33.9236 -1.02545,-38.5988l28.3927 0c0.113939,0.569697 0.227879,2.05212 0.341818,4.50424 0.113939,2.45091 0.286061,5.24485 0.45697,8.43758 0.170909,3.19273 0.341818,9.17939 0.569697,17.96l0.512727 0c6.89939,-12.4861 14.8812,-21.2667 23.9467,-26.4545 9.06545,-5.18909 20.3539,-7.81091 33.8097,-7.81091 19.8412,0 34.3224,4.96 43.5588,14.823 9.17939,9.86424 13.7406,26.1127 13.7406,48.8618l0 120.415 -30.2182 0z"/>
  <polygon id="123456789" class="fil0" points="1530.41,1130.24 1665.2,1130.24 1665.2,925.325 1588.23,1090.21 1511.26,924.983 1511.26,1140.5 1500.99,1140.16 1500.99,900.695 1511.26,900.695 1588.23,1065.92 1665.2,901.038 1675.46,900.695 1675.46,1140.5 1530.41,1140.16 "/>
  <path id="12345678910" class="fil0" d="M1768.5 901.038l131.019 0 0 136.492c0,36.4897 -6.27152,63.343 -18.8145,80.5612 -12.543,17.2194 -32.84,25.8279 -60.8909,25.8279 -28.0509,0 -48.3491,-8.60848 -60.8921,-25.8279 -12.543,-17.2182 -18.8145,-44.0715 -18.8145,-80.5612l0 -136.492 10.263 0 0 136.492c0,18.9285 1.59636,34.8364 4.78909,47.7212 3.19273,12.8861 7.98182,22.7491 14.3673,29.5903 6.38545,6.84242 13.5697,11.6885 21.5515,14.5394 7.98182,2.85091 17.56,4.27636 28.7358,4.27636 11.1745,0 20.7527,-1.42545 28.7345,-4.27636 7.98303,-2.85091 15.1661,-7.69697 21.5515,-14.5394 6.38545,-6.84121 11.1758,-16.7042 14.3685,-29.5903 3.19273,-12.8848 4.78909,-28.7927 4.78909,-47.7212l0 -126.23 -120.758 0 0 -10.2618z"/>
  <path id="1234567891011" class="fil0" d="M1956.99 960.218c0,-22.1212 5.58788,-38.0861 16.7624,-47.8921 11.1745,-9.80606 29.3055,-14.7103 54.3915,-14.7103 17.5612,0 31.7006,4.56121 42.4194,13.6836 10.7188,9.12242 18.4727,23.0339 23.2618,41.7345l-31.8145 23.9467 -16.7612 0 36.9455 -27.7091c-4.7903,-15.28 -11.6885,-25.9988 -20.697,-32.1564 -9.00848,-6.15758 -20.1261,-9.23636 -33.3539,-9.23636 -9.12121,0 -16.8182,0.569697 -23.0897,1.7103 -6.27273,1.14061 -12.5442,3.36364 -18.8158,6.6703 -6.27152,3.30788 -11.0036,8.6097 -14.1964,15.9079 -3.19273,7.29818 -4.78909,16.6485 -4.78909,28.0509 0,10.0352 4.61818,18.9285 13.8545,26.6824 9.23636,7.75394 20.4679,14.3685 33.6958,19.8412 13.2267,5.47394 26.5115,11.0606 39.8533,16.7624 13.3406,5.70182 24.6303,13 33.8667,21.8933 9.23636,8.89455 13.8545,19.1576 13.8545,30.7879 0,22.8061 -5.64485,39.7964 -16.9333,50.9709 -11.2897,11.1758 -30.617,16.7624 -57.9842,16.7624 -22.3491,0 -39.9103,-4.50424 -52.6812,-13.5127 -12.7709,-9.00727 -21.5515,-22.9758 -26.3406,-41.9055l9.57818 -4.10424c4.56121,18.4727 12.3721,31.3006 23.4327,38.4848 11.0606,7.18303 26.3976,10.7758 46.0109,10.7758 21.8933,0 38.143,-4.21939 48.7479,-12.6582 10.6048,-8.43758 15.9067,-23.3758 15.9067,-44.8133 0,-10.0339 -4.61818,-18.9285 -13.8545,-26.6824 -9.23636,-7.75394 -20.5248,-14.3673 -33.8667,-19.8412 -13.3418,-5.47273 -26.6255,-11.0606 -39.8533,-16.7624 -13.2267,-5.70182 -24.4594,-12.9988 -33.6958,-21.8933 -9.23636,-8.89455 -13.8545,-19.1564 -13.8545,-30.7879z"/>
  <polygon id="123456789101112" class="fil0" points="2278.9,1015.29 2177.3,1015.29 2281.98,911.299 2166.35,911.299 2166.35,1130.24 2299.08,1130.24 2299.08,1140.5 2156.09,1140.5 2156.09,901.038 2306.95,901.038 2202.27,1005.03 2278.9,1005.03 "/>
  <polygon id="12345678910111213" class="fil1 str0" points="1530.41,1130.24 1665.2,1130.24 1665.2,925.325 1588.23,1090.21 1511.26,924.983 1511.26,1140.5 1500.99,1140.16 1500.99,900.695 1511.26,900.695 1588.23,1065.92 1665.2,901.038 1675.46,900.695 1675.46,1140.5 1530.41,1140.16 "/>
  <path id="1234567891011121314" class="fil1 str0" d="M1768.5 901.038l131.019 0 0 136.492c0,36.4897 -6.27152,63.343 -18.8145,80.5612 -12.543,17.2194 -32.84,25.8279 -60.8909,25.8279 -28.0509,0 -48.3491,-8.60848 -60.8921,-25.8279 -12.543,-17.2182 -18.8145,-44.0715 -18.8145,-80.5612l0 -136.492 10.263 0 0 136.492c0,18.9285 1.59636,34.8364 4.78909,47.7212 3.19273,12.8861 7.98182,22.7491 14.3673,29.5903 6.38545,6.84242 13.5697,11.6885 21.5515,14.5394 7.98182,2.85091 17.56,4.27636 28.7358,4.27636 11.1745,0 20.7527,-1.42545 28.7345,-4.27636 7.98303,-2.85091 15.1661,-7.69697 21.5515,-14.5394 6.38545,-6.84121 11.1758,-16.7042 14.3685,-29.5903 3.19273,-12.8848 4.78909,-28.7927 4.78909,-47.7212l0 -126.23 -120.758 0 0 -10.2618z"/>
  <path id="123456789101112131415" class="fil1 str0" d="M1956.99 960.218c0,-22.1212 5.58788,-38.0861 16.7624,-47.8921 11.1745,-9.80606 29.3055,-14.7103 54.3915,-14.7103 17.5612,0 31.7006,4.56121 42.4194,13.6836 10.7188,9.12242 18.4727,23.0339 23.2618,41.7345l-31.8145 23.9467 -16.7612 0 36.9455 -27.7091c-4.7903,-15.28 -11.6885,-25.9988 -20.697,-32.1564 -9.00848,-6.15758 -20.1261,-9.23636 -33.3539,-9.23636 -9.12121,0 -16.8182,0.569697 -23.0897,1.7103 -6.27273,1.14061 -12.5442,3.36364 -18.8158,6.6703 -6.27152,3.30788 -11.0036,8.6097 -14.1964,15.9079 -3.19273,7.29818 -4.78909,16.6485 -4.78909,28.0509 0,10.0352 4.61818,18.9285 13.8545,26.6824 9.23636,7.75394 20.4679,14.3685 33.6958,19.8412 13.2267,5.47394 26.5115,11.0606 39.8533,16.7624 13.3406,5.70182 24.6303,13 33.8667,21.8933 9.23636,8.89455 13.8545,19.1576 13.8545,30.7879 0,22.8061 -5.64485,39.7964 -16.9333,50.9709 -11.2897,11.1758 -30.617,16.7624 -57.9842,16.7624 -22.3491,0 -39.9103,-4.50424 -52.6812,-13.5127 -12.7709,-9.00727 -21.5515,-22.9758 -26.3406,-41.9055l9.57818 -4.10424c4.56121,18.4727 12.3721,31.3006 23.4327,38.4848 11.0606,7.18303 26.3976,10.7758 46.0109,10.7758 21.8933,0 38.143,-4.21939 48.7479,-12.6582 10.6048,-8.43758 15.9067,-23.3758 15.9067,-44.8133 0,-10.0339 -4.61818,-18.9285 -13.8545,-26.6824 -9.23636,-7.75394 -20.5248,-14.3673 -33.8667,-19.8412 -13.3418,-5.47273 -26.6255,-11.0606 -39.8533,-16.7624 -13.2267,-5.70182 -24.4594,-12.9988 -33.6958,-21.8933 -9.23636,-8.89455 -13.8545,-19.1564 -13.8545,-30.7879z"/>
  <polygon id="12345678910111213141516" class="fil1 str0" points="2278.9,1015.29 2177.3,1015.29 2281.98,911.299 2166.35,911.299 2166.35,1130.24 2299.08,1130.24 2299.08,1140.5 2156.09,1140.5 2156.09,901.038 2306.95,901.038 2202.27,1005.03 2278.9,1005.03 "/>
  <path class="fil0" d="M2485.01 1594.1c-18.1309,0 -31.8145,-4.78909 -40.937,-14.3673 -9.12242,-9.57818 -13.6836,-22.7491 -13.6836,-39.4545 0,-18.7006 6.15758,-33.0679 18.4727,-43.103 12.2582,-9.97697 32.1564,-15.337 59.5236,-16.0206l40.5939 -0.684848 0 -9.80606c0,-14.7091 -3.13576,-25.257 -9.3503,-31.5855 -6.21455,-6.3297 -16.0206,-9.52242 -29.4194,-9.52242 -13.4545,0 -23.2618,2.28121 -29.3624,6.84242 -6.15758,4.56121 -9.80606,11.8594 -11.0606,21.8933l-31.3576 -2.85091c5.07394,-32.4982 29.2485,-48.8036 72.4655,-48.8036 22.6909,0 39.7964,5.24485 51.2558,15.6218 11.5164,10.4327 17.2182,25.4848 17.2182,45.2121l0 77.8255c0,8.89333 1.19758,15.6218 3.53455,20.1261 2.33818,4.50303 6.78545,6.78424 13.3418,6.78424 2.90788,0 6.15758,-0.398788 9.86303,-1.19758l0 18.7006c-7.58182,1.82545 -15.3358,2.68 -23.2048,2.68 -11.1745,0 -19.2703,-2.90788 -24.3442,-8.78061 -5.01818,-5.81455 -7.92606,-14.9939 -8.55273,-27.423l-1.02667 0c-7.69697,13.7976 -16.6473,23.5467 -26.7964,29.3055 -10.2061,5.70061 -22.5782,8.60848 -37.1733,8.60848zm6.84121 -22.577c11.0036,0 20.8109,-2.50909 29.4194,-7.52606 8.55273,-5.01818 15.337,-11.8594 20.2982,-20.64 4.96,-8.72242 7.41091,-17.7309 7.41091,-26.9673l0 -14.8242 -32.897 0.627879c-14.1394,0.227879 -24.8582,1.7103 -32.1564,4.33212 -7.29818,2.68 -12.8848,6.84242 -16.8194,12.3721 -3.87636,5.58788 -5.81576,12.8861 -5.81576,21.8945 0,9.80606 2.62303,17.3891 7.92606,22.6909 5.30182,5.36 12.8279,8.04 22.6339,8.04z"/>
  <path id="1" class="fil0" d="M2629.83 1590.74l0 -138.659c0,-12.657 -0.341818,-26.6824 -1.02545,-42.0764l28.3927 0c0.912727,20.4679 1.36848,32.783 1.36848,36.9455l0.683636 0c4.7903,-15.5079 10.263,-26.0558 16.5345,-31.7576 6.21455,-5.70182 14.9952,-8.55152 26.3976,-8.55152 3.99152,0 8.04,0.569697 12.1442,1.7103l0 27.5382c-3.9903,-1.08364 -9.3503,-1.65455 -16.0206,-1.65455 -12.4861,0 -22.0073,5.36 -28.5648,16.1358 -6.55636,10.7188 -9.86303,26.1127 -9.86303,46.1818l0 94.1879 -30.0473 0z"/>
  <path id="12" class="fil0" d="M2812.56 1589.43c-9.92,2.62303 -20.0691,3.99152 -30.3891,3.99152 -24.0594,0 -36.0897,-13.6267 -36.0897,-40.937l0 -120.585 -20.8679 0 0 -21.8933 22.0655 0 8.83636 -40.4242 20.0121 0 0 40.4242 33.4109 0 0 21.8933 -33.4109 0 0 114.086c0,8.66667 1.42545,14.7673 4.27636,18.3018 2.85091,3.47758 7.75394,5.24485 14.7673,5.24485 4.04727,0 9.80606,-0.797576 17.3891,-2.33697l0 22.2352z"/>
  <path id="123" class="fil0" d="M2837.93 1371.58l0 -28.7358 30.103 0 0 28.7358 -30.103 0zm0 219.164l0 -180.736 30.103 0 0 180.736 -30.103 0z"/>
  <path id="1234" class="fil0" d="M3049.74 1540.8c0,17.0473 -6.44242,30.16 -19.2715,39.3964 -12.8848,9.29333 -30.9018,13.9115 -54.0497,13.9115 -22.463,0 -39.8521,-3.70545 -52.0533,-11.1176 -12.1442,-7.41212 -20.1261,-18.9855 -23.7758,-34.6655l26.5685 -5.18788c2.56606,9.69212 7.86909,16.7624 15.8509,21.3236 8.03879,4.50424 19.1564,6.72727 33.4097,6.72727 15.28,0 26.3988,-2.33697 33.4679,-7.01212 7.12727,-4.67515 10.6618,-11.6885 10.6618,-21.0388 0,-7.12727 -2.45212,-12.9418 -7.35515,-17.3891 -4.90303,-4.44727 -12.8279,-8.09576 -23.7176,-11.0036l-21.5515 -5.70182c-17.2752,-4.44727 -29.5333,-8.78061 -36.8315,-13.1139 -7.29818,-4.27515 -12.9988,-9.46424 -17.1612,-15.6218 -4.10545,-6.10061 -6.15758,-13.6267 -6.15758,-22.52 0,-16.4776 5.87273,-29.0206 17.617,-37.6873 11.7455,-8.60848 28.8497,-12.9418 51.3709,-12.9418 19.9552,0 35.7479,3.53455 47.4921,10.5479 11.7455,7.01212 19.2145,18.2448 22.3503,33.7527l-27.0824 3.30667c-1.65333,-7.98182 -6.15758,-14.1394 -13.4545,-18.4727 -7.29818,-4.27636 -17.0473,-6.38545 -29.3055,-6.38545 -13.5697,0 -23.6048,2.05212 -30.0473,6.15758 -6.49939,4.10424 -9.69212,10.3758 -9.69212,18.7006 0,5.13091 1.31152,9.3503 3.9903,12.7139 2.68,3.30667 6.61455,6.15758 11.8594,8.49576 5.24606,2.33697 16.2497,5.58667 33.0691,9.69212 15.9067,4.04727 27.423,7.69697 34.4364,11.1176 7.01212,3.42061 12.543,7.18424 16.5915,11.2885 4.04727,4.10545 7.24,8.89455 9.46424,14.2545 2.22303,5.41576 3.30667,11.5733 3.30667,18.4727z"/>
  <path id="12345" class="fil0" d="M3154.65 1589.43c-9.92,2.62303 -20.0691,3.99152 -30.3891,3.99152 -24.0594,0 -36.0897,-13.6267 -36.0897,-40.937l0 -120.585 -20.8679 0 0 -21.8933 22.0655 0 8.83636 -40.4242 20.0121 0 0 40.4242 33.4109 0 0 21.8933 -33.4109 0 0 114.086c0,8.66667 1.42545,14.7673 4.27636,18.3018 2.85091,3.47758 7.75394,5.24485 14.7673,5.24485 4.04727,0 9.80606,-0.797576 17.3891,-2.33697l0 22.2352z"/>
 </g>
</svg>
